<svg width="776" height="429" viewBox="0 0 776 429" fill="none" xmlns="http://www.w3.org/2000/svg">
<g clip-path="url(#clip0_2031_371)">
<rect x="0.5" y="-0.000244141" width="775" height="428.386" rx="14.6457" fill="#1D2432"/>
<g filter="url(#filter0_f_2031_371)">
<path fill-rule="evenodd" clip-rule="evenodd" d="M106.682 -46.3782L669.319 403.976L322.705 474.764L106.682 -46.3782Z" fill="url(#paint0_linear_2031_371)" fill-opacity="0.24"/>
</g>
<path d="M449.635 174.527H489.89C494.096 174.527 498.098 172.719 500.879 169.564L524.393 142.876C527.174 139.721 531.176 137.913 535.382 137.913H692.509" stroke="white" stroke-opacity="0.3" stroke-width="3.66142" stroke-linecap="square" stroke-linejoin="round"/>
<path d="M326.365 174.527H286.11C281.904 174.527 277.902 172.719 275.121 169.564L251.607 142.876C248.826 139.721 244.824 137.913 240.618 137.913H83.4912" stroke="white" stroke-opacity="0.3" stroke-width="3.66142" stroke-linecap="square" stroke-linejoin="round"/>
<path d="M449.635 252.638H489.89C494.096 252.638 498.098 254.445 500.879 257.601L524.393 284.288C527.174 287.444 531.176 289.252 535.382 289.252H692.509" stroke="white" stroke-opacity="0.3" stroke-width="3.66142" stroke-linecap="square" stroke-linejoin="round"/>
<path d="M326.365 252.638H286.11C281.904 252.638 277.902 254.445 275.121 257.601L251.607 284.288C248.826 287.444 244.824 289.252 240.618 289.252H83.4912" stroke="white" stroke-opacity="0.3" stroke-width="3.66142" stroke-linecap="square" stroke-linejoin="round"/>
<path d="M452.074 213.582H516.149H563.747H692.507" stroke="white" stroke-opacity="0.3" stroke-width="3.66142" stroke-linecap="square" stroke-linejoin="round"/>
<path d="M325.146 213.582H261.072H213.473H84.7134" stroke="white" stroke-opacity="0.3" stroke-width="3.66142" stroke-linecap="square" stroke-linejoin="round"/>
<g filter="url(#filter1_d_2031_371)">
<rect x="326.365" y="152.559" width="122.047" height="122.047" rx="17.0866" fill="url(#paint1_linear_2031_371)" shape-rendering="crispEdges"/>
<rect x="328.196" y="154.39" width="118.386" height="118.386" rx="15.2559" stroke="#F3F3F3" stroke-opacity="0.12" stroke-width="3.66142" shape-rendering="crispEdges"/>
<path fill-rule="evenodd" clip-rule="evenodd" d="M356.877 211.288C357.994 196.219 370.025 184.188 385.094 183.071V194.001C385.094 203.548 377.354 211.288 367.807 211.288H356.877ZM417.899 211.288C416.781 196.219 404.75 184.188 389.682 183.071V194.001C389.682 203.548 397.421 211.288 406.969 211.288H417.899ZM385.094 233.164V244.094C370.025 242.977 357.994 230.946 356.877 215.877H367.807C377.354 215.877 385.094 223.617 385.094 233.164ZM406.969 215.877H417.899C416.781 230.946 404.75 242.977 389.682 244.094V233.164C389.682 223.617 397.421 215.877 406.969 215.877Z" fill="url(#paint2_linear_2031_371)"/>
</g>
<g filter="url(#filter2_d_2031_371)">
<mask id="path-12-inside-1_2031_371" fill="white">
<path d="M520.131 145.224C520.773 144.444 521.942 144.371 522.676 145.065C523.391 145.739 523.409 146.871 522.715 147.567L503.304 167.053C503.122 167.236 502.823 167.228 502.65 167.036C502.5 166.871 502.495 166.62 502.637 166.448L520.131 145.224Z"/>
</mask>
<path d="M520.131 145.224C520.773 144.444 521.942 144.371 522.676 145.065C523.391 145.739 523.409 146.871 522.715 147.567L503.304 167.053C503.122 167.236 502.823 167.228 502.65 167.036C502.5 166.871 502.495 166.62 502.637 166.448L520.131 145.224Z" fill="url(#paint3_linear_2031_371)"/>
<path d="M502.637 166.448L499.811 164.119L502.637 166.448ZM520.121 144.983L500.71 164.468L505.898 169.637L525.309 150.151L520.121 144.983ZM505.462 168.777L522.956 147.553L517.305 142.895L499.811 164.119L505.462 168.777ZM505.368 164.583C506.434 165.764 506.474 167.549 505.462 168.777L499.811 164.119C498.515 165.692 498.566 167.977 499.932 169.49L505.368 164.583ZM500.71 164.468C502.009 163.165 504.135 163.217 505.368 164.583L499.932 169.49C501.511 171.239 504.235 171.306 505.898 169.637L500.71 164.468ZM520.164 147.728C519.38 146.988 519.36 145.747 520.121 144.983L525.309 150.151C527.457 147.994 527.403 144.49 525.189 142.401L520.164 147.728ZM525.189 142.401C522.913 140.254 519.296 140.481 517.305 142.895L522.956 147.553C522.251 148.408 520.97 148.488 520.164 147.728L525.189 142.401Z" fill="#F3F3F3" fill-opacity="0.12" mask="url(#path-12-inside-1_2031_371)"/>
</g>
<g filter="url(#filter3_d_2031_371)">
<mask id="path-14-inside-2_2031_371" fill="white">
<path d="M254.593 283.415C253.987 284.224 252.823 284.35 252.057 283.691C251.312 283.05 251.243 281.921 251.904 281.193L270.402 260.839C270.576 260.648 270.874 260.641 271.056 260.825C271.213 260.984 271.23 261.234 271.096 261.412L254.593 283.415Z"/>
</mask>
<path d="M254.593 283.415C253.987 284.224 252.823 284.35 252.057 283.691C251.312 283.05 251.243 281.921 251.904 281.193L270.402 260.839C270.576 260.648 270.874 260.641 271.056 260.825C271.213 260.984 271.23 261.234 271.096 261.412L254.593 283.415Z" fill="url(#paint4_linear_2031_371)"/>
<path d="M271.096 261.412L274.025 263.609L271.096 261.412ZM254.614 283.656L273.112 263.301L267.692 258.376L249.194 278.731L254.614 283.656ZM268.167 259.215L251.664 281.219L257.522 285.612L274.025 263.609L268.167 259.215ZM268.453 263.4C267.334 262.269 267.212 260.489 268.167 259.215L274.025 263.609C275.248 261.979 275.092 259.698 273.658 258.249L268.453 263.4ZM273.112 263.301C271.874 264.663 269.748 264.708 268.453 263.4L273.658 258.249C272.001 256.574 269.277 256.632 267.692 258.376L273.112 263.301ZM254.445 280.916C255.263 281.619 255.339 282.858 254.614 283.656L249.194 278.731C247.147 280.984 247.362 284.481 249.669 286.467L254.445 280.916ZM249.669 286.467C252.041 288.508 255.645 288.115 257.522 285.612L251.664 281.219C252.329 280.332 253.605 280.193 254.445 280.916L249.669 286.467Z" fill="#F3F3F3" fill-opacity="0.12" mask="url(#path-14-inside-2_2031_371)"/>
</g>
<g filter="url(#filter4_d_2031_371)">
<mask id="path-16-inside-3_2031_371" fill="white">
<path d="M667.928 211.266C668.936 211.199 669.791 211.998 669.791 213.009C669.791 213.992 668.98 214.781 667.997 214.754L640.503 214.008C640.245 214.001 640.046 213.779 640.066 213.521C640.084 213.299 640.262 213.123 640.485 213.108L667.928 211.266Z"/>
</mask>
<path d="M667.928 211.266C668.936 211.199 669.791 211.998 669.791 213.009C669.791 213.992 668.98 214.781 667.997 214.754L640.503 214.008C640.245 214.001 640.046 213.779 640.066 213.521C640.084 213.299 640.262 213.123 640.485 213.108L667.928 211.266Z" fill="url(#paint5_linear_2031_371)"/>
<path d="M640.485 213.108L640.24 209.455L640.485 213.108ZM668.097 211.094L640.603 210.348L640.404 217.668L667.898 218.414L668.097 211.094ZM640.73 216.761L668.173 214.92L667.683 207.613L640.24 209.455L640.73 216.761ZM643.716 213.814C643.589 215.401 642.318 216.654 640.73 216.761L640.24 209.455C638.206 209.591 636.58 211.197 636.417 213.228L643.716 213.814ZM640.603 210.348C642.442 210.398 643.863 211.98 643.716 213.814L636.417 213.228C636.228 215.577 638.048 217.604 640.404 217.668L640.603 210.348ZM666.13 213.009C666.13 211.931 667.019 211.065 668.097 211.094L667.898 218.414C670.941 218.497 673.452 216.053 673.452 213.009H666.13ZM673.452 213.009C673.452 209.88 670.805 207.404 667.683 207.613L668.173 214.92C667.067 214.994 666.13 214.117 666.13 213.009H673.452Z" fill="#F3F3F3" fill-opacity="0.12" mask="url(#path-16-inside-3_2031_371)"/>
</g>
<g filter="url(#filter5_d_2031_371)">
<mask id="path-18-inside-4_2031_371" fill="white">
<path d="M280.631 211.266C279.623 211.199 278.768 211.998 278.768 213.009C278.768 213.992 279.579 214.781 280.561 214.754L308.055 214.008C308.314 214.001 308.513 213.779 308.492 213.521C308.475 213.299 308.296 213.123 308.073 213.108L280.631 211.266Z"/>
</mask>
<path d="M280.631 211.266C279.623 211.199 278.768 211.998 278.768 213.009C278.768 213.992 279.579 214.781 280.561 214.754L308.055 214.008C308.314 214.001 308.513 213.779 308.492 213.521C308.475 213.299 308.296 213.123 308.073 213.108L280.631 211.266Z" fill="url(#paint6_linear_2031_371)"/>
<path d="M308.073 213.108L308.318 209.455L308.073 213.108ZM280.462 211.094L307.956 210.348L308.155 217.668L280.66 218.414L280.462 211.094ZM307.828 216.761L280.386 214.92L280.876 207.613L308.318 209.455L307.828 216.761ZM304.843 213.814C304.97 215.401 306.24 216.654 307.828 216.761L308.318 209.455C310.352 209.591 311.979 211.197 312.142 213.228L304.843 213.814ZM307.956 210.348C306.117 210.398 304.695 211.98 304.843 213.814L312.142 213.228C312.331 215.577 310.51 217.604 308.155 217.668L307.956 210.348ZM282.429 213.009C282.429 211.931 281.539 211.065 280.462 211.094L280.66 218.414C277.618 218.497 275.106 216.053 275.106 213.009H282.429ZM275.106 213.009C275.106 209.88 277.754 207.404 280.876 207.613L280.386 214.92C281.491 214.994 282.429 214.117 282.429 213.009H275.106Z" fill="#F3F3F3" fill-opacity="0.12" mask="url(#path-18-inside-4_2031_371)"/>
</g>
<g filter="url(#filter6_d_2031_371)">
<mask id="path-20-inside-5_2031_371" fill="white">
<path d="M159.804 135.597C158.796 135.53 157.941 136.329 157.941 137.339C157.941 138.322 158.752 139.112 159.735 139.085L187.229 138.339C187.487 138.332 187.687 138.11 187.666 137.852C187.648 137.629 187.47 137.453 187.247 137.438L159.804 135.597Z"/>
</mask>
<path d="M159.804 135.597C158.796 135.53 157.941 136.329 157.941 137.339C157.941 138.322 158.752 139.112 159.735 139.085L187.229 138.339C187.487 138.332 187.687 138.11 187.666 137.852C187.648 137.629 187.47 137.453 187.247 137.438L159.804 135.597Z" fill="url(#paint7_linear_2031_371)"/>
<path d="M187.247 137.438L187.492 133.785L187.247 137.438ZM159.636 135.425L187.13 134.679L187.328 141.999L159.834 142.745L159.636 135.425ZM187.002 141.092L159.559 139.25L160.05 131.944L187.492 133.785L187.002 141.092ZM184.017 138.145C184.144 139.731 185.414 140.985 187.002 141.092L187.492 133.785C189.526 133.922 191.153 135.527 191.316 137.559L184.017 138.145ZM187.13 134.679C185.291 134.729 183.869 136.311 184.017 138.145L191.316 137.559C191.504 139.908 189.684 141.935 187.328 141.999L187.13 134.679ZM161.603 137.339C161.603 136.261 160.713 135.396 159.636 135.425L159.834 142.745C156.791 142.828 154.28 140.383 154.28 137.339H161.603ZM154.28 137.339C154.28 134.21 156.928 131.734 160.05 131.944L159.559 139.25C160.665 139.325 161.603 138.448 161.603 137.339H154.28Z" fill="#F3F3F3" fill-opacity="0.12" mask="url(#path-20-inside-5_2031_371)"/>
</g>
<g filter="url(#filter7_d_2031_371)">
<mask id="path-22-inside-6_2031_371" fill="white">
<path d="M582.494 286.936C583.502 286.868 584.357 287.668 584.357 288.678C584.357 289.661 583.546 290.45 582.564 290.424L555.07 289.677C554.811 289.67 554.612 289.448 554.633 289.191C554.65 288.968 554.829 288.792 555.052 288.777L582.494 286.936Z"/>
</mask>
<path d="M582.494 286.936C583.502 286.868 584.357 287.668 584.357 288.678C584.357 289.661 583.546 290.45 582.564 290.424L555.07 289.677C554.811 289.67 554.612 289.448 554.633 289.191C554.65 288.968 554.829 288.792 555.052 288.777L582.494 286.936Z" fill="url(#paint8_linear_2031_371)"/>
<path d="M555.052 288.777L554.807 285.124L555.052 288.777ZM582.663 286.763L555.169 286.017L554.97 293.337L582.465 294.084L582.663 286.763ZM555.297 292.43L582.739 290.589L582.249 283.283L554.807 285.124L555.297 292.43ZM558.282 289.484C558.155 291.07 556.885 292.324 555.297 292.43L554.807 285.124C552.773 285.26 551.146 286.866 550.983 288.898L558.282 289.484ZM555.169 286.017C557.008 286.067 558.43 287.65 558.282 289.484L550.983 288.898C550.794 291.247 552.615 293.273 554.97 293.337L555.169 286.017ZM580.696 288.678C580.696 287.6 581.586 286.734 582.663 286.763L582.465 294.084C585.507 294.166 588.019 291.722 588.019 288.678H580.696ZM588.019 288.678C588.019 285.549 585.371 283.073 582.249 283.283L582.739 290.589C581.634 290.663 580.696 289.786 580.696 288.678H588.019Z" fill="#F3F3F3" fill-opacity="0.12" mask="url(#path-22-inside-6_2031_371)"/>
</g>
<rect x="621.11" y="118.996" width="40.2756" height="40.2756" rx="20.1378" fill="#53575F"/>
<rect x="621.11" y="118.996" width="40.2756" height="40.2756" rx="20.1378" stroke="url(#paint9_linear_2031_371)" stroke-width="1.22047"/>
<rect x="621.11" y="118.996" width="40.2756" height="40.2756" rx="20.1378" fill="#53575F"/>
<rect x="621.11" y="118.996" width="40.2756" height="40.2756" rx="20.1378" stroke="url(#paint10_linear_2031_371)" stroke-width="1.22047"/>
<path opacity="0.2" d="M650.401 136.388C650.402 137.775 650.088 139.144 649.481 140.391C648.875 141.638 647.992 142.731 646.901 143.587C646.568 143.845 646.297 144.176 646.111 144.554C645.924 144.933 645.826 145.348 645.824 145.77V146.457C645.824 146.699 645.728 146.932 645.556 147.104C645.384 147.275 645.152 147.372 644.909 147.372H637.586C637.343 147.372 637.11 147.275 636.939 147.104C636.767 146.932 636.671 146.699 636.671 146.457V145.77C636.67 145.351 636.574 144.937 636.39 144.56C636.205 144.183 635.938 143.854 635.607 143.596C634.518 142.746 633.637 141.66 633.029 140.421C632.42 139.181 632.101 137.82 632.094 136.439C632.066 131.478 636.067 127.349 641.027 127.234C642.247 127.205 643.461 127.42 644.597 127.866C645.734 128.313 646.769 128.983 647.642 129.836C648.516 130.689 649.21 131.708 649.684 132.833C650.157 133.958 650.401 135.167 650.401 136.388Z" fill="white"/>
<path d="M646.739 151.033C646.739 151.276 646.642 151.509 646.471 151.681C646.299 151.852 646.066 151.949 645.824 151.949H636.67C636.427 151.949 636.194 151.852 636.023 151.681C635.851 151.509 635.755 151.276 635.755 151.033C635.755 150.791 635.851 150.558 636.023 150.386C636.194 150.214 636.427 150.118 636.67 150.118H645.824C646.066 150.118 646.299 150.214 646.471 150.386C646.642 150.558 646.739 150.791 646.739 151.033ZM651.316 136.388C651.32 137.914 650.975 139.42 650.308 140.793C649.641 142.165 648.669 143.367 647.467 144.307C647.242 144.479 647.059 144.7 646.933 144.954C646.807 145.208 646.741 145.487 646.739 145.77V146.457C646.739 146.942 646.546 147.408 646.203 147.751C645.859 148.094 645.394 148.287 644.908 148.287H637.585C637.1 148.287 636.634 148.094 636.291 147.751C635.948 147.408 635.755 146.942 635.755 146.457V145.77C635.754 145.49 635.69 145.214 635.567 144.963C635.443 144.712 635.263 144.492 635.042 144.321C633.843 143.388 632.872 142.193 632.202 140.828C631.533 139.464 631.182 137.965 631.178 136.445C631.148 130.99 635.556 126.45 641.004 126.319C642.347 126.286 643.682 126.523 644.932 127.014C646.182 127.506 647.321 128.242 648.281 129.181C649.242 130.119 650.006 131.24 650.527 132.478C651.048 133.715 651.316 135.045 651.316 136.388ZM649.485 136.388C649.485 135.289 649.266 134.201 648.839 133.188C648.413 132.176 647.788 131.258 647.002 130.491C646.216 129.723 645.284 129.121 644.261 128.718C643.239 128.316 642.146 128.123 641.048 128.149C636.585 128.255 632.985 131.97 633.009 136.432C633.013 137.676 633.3 138.902 633.847 140.018C634.395 141.134 635.19 142.11 636.171 142.874C636.612 143.217 636.969 143.656 637.214 144.158C637.459 144.66 637.586 145.211 637.585 145.77V146.457H640.331V141.343L636.938 137.951C636.766 137.779 636.67 137.546 636.67 137.303C636.67 137.06 636.766 136.827 636.938 136.655C637.11 136.484 637.342 136.387 637.585 136.387C637.828 136.387 638.061 136.484 638.233 136.655L641.247 139.67L644.261 136.655C644.346 136.57 644.447 136.503 644.558 136.457C644.669 136.411 644.788 136.387 644.908 136.387C645.028 136.387 645.148 136.411 645.259 136.457C645.37 136.503 645.471 136.57 645.556 136.655C645.641 136.74 645.708 136.841 645.754 136.952C645.8 137.064 645.824 137.183 645.824 137.303C645.824 137.423 645.8 137.542 645.754 137.653C645.708 137.765 645.641 137.866 645.556 137.951L642.162 141.343V146.457H644.908V145.77C644.909 145.21 645.038 144.657 645.286 144.154C645.533 143.652 645.892 143.212 646.335 142.869C647.319 142.1 648.115 141.117 648.66 139.993C649.206 138.87 649.488 137.637 649.485 136.388Z" fill="white"/>
<rect x="113.393" y="118.996" width="40.2756" height="40.2756" rx="20.1378" fill="#53575F"/>
<rect x="113.393" y="118.996" width="40.2756" height="40.2756" rx="20.1378" stroke="url(#paint11_linear_2031_371)" stroke-width="1.22047"/>
<path opacity="0.2" d="M144.515 136.388V141.88C144.515 142.122 144.419 142.355 144.247 142.527C144.076 142.699 143.843 142.795 143.6 142.795H137.193V149.203C137.193 149.445 137.096 149.678 136.924 149.85C136.753 150.021 136.52 150.118 136.277 150.118H130.785C130.542 150.118 130.309 150.021 130.138 149.85C129.966 149.678 129.87 149.445 129.87 149.203V142.795H123.462C123.219 142.795 122.987 142.699 122.815 142.527C122.643 142.355 122.547 142.122 122.547 141.88V136.388C122.547 136.145 122.643 135.912 122.815 135.74C122.987 135.569 123.219 135.472 123.462 135.472H129.87V129.065C129.87 128.822 129.966 128.589 130.138 128.418C130.309 128.246 130.542 128.149 130.785 128.149H136.277C136.52 128.149 136.753 128.246 136.924 128.418C137.096 128.589 137.193 128.822 137.193 129.065V135.472H143.6C143.843 135.472 144.076 135.569 144.247 135.74C144.419 135.912 144.515 136.145 144.515 136.388Z" fill="white"/>
<path d="M143.599 134.557H138.107V129.065C138.107 128.579 137.914 128.114 137.571 127.77C137.228 127.427 136.762 127.234 136.277 127.234H130.784C130.299 127.234 129.833 127.427 129.49 127.77C129.147 128.114 128.954 128.579 128.954 129.065V134.557H123.462C122.976 134.557 122.51 134.75 122.167 135.093C121.824 135.436 121.631 135.902 121.631 136.388V141.88C121.631 142.365 121.824 142.831 122.167 143.174C122.51 143.518 122.976 143.711 123.462 143.711H128.954V149.203C128.954 149.688 129.147 150.154 129.49 150.497C129.833 150.84 130.299 151.033 130.784 151.033H136.277C136.762 151.033 137.228 150.84 137.571 150.497C137.914 150.154 138.107 149.688 138.107 149.203V143.711H143.599C144.085 143.711 144.551 143.518 144.894 143.174C145.237 142.831 145.43 142.365 145.43 141.88V136.388C145.43 135.902 145.237 135.436 144.894 135.093C144.551 134.75 144.085 134.557 143.599 134.557ZM143.599 141.88H137.192C136.949 141.88 136.716 141.976 136.545 142.148C136.373 142.32 136.277 142.552 136.277 142.795V149.203H130.784V142.795C130.784 142.552 130.688 142.32 130.516 142.148C130.345 141.976 130.112 141.88 129.869 141.88H123.462V136.388H129.869C130.112 136.388 130.345 136.291 130.516 136.12C130.688 135.948 130.784 135.715 130.784 135.472V129.065H136.277V135.472C136.277 135.715 136.373 135.948 136.545 136.12C136.716 136.291 136.949 136.388 137.192 136.388H143.599V141.88Z" fill="white"/>
<rect x="540.559" y="193.445" width="40.2756" height="40.2756" rx="20.1378" fill="#53575F"/>
<rect x="540.559" y="193.445" width="40.2756" height="40.2756" rx="20.1378" stroke="url(#paint12_linear_2031_371)" stroke-width="1.22047"/>
<path opacity="0.2" d="M561.902 215.123C558.25 209.034 563.12 202.947 573.469 203.556C574.083 213.905 567.99 218.776 561.902 215.123ZM547.911 208.12C547.476 215.513 551.825 218.99 556.173 216.382C558.782 212.034 555.304 207.685 547.911 208.12Z" fill="white"/>
<path d="M574.385 203.501C574.372 203.277 574.277 203.066 574.119 202.907C573.96 202.749 573.749 202.654 573.525 202.641C567.602 202.297 562.847 204.098 560.804 207.472C559.453 209.7 559.456 212.41 560.785 214.993C560.029 215.893 559.476 216.945 559.164 218.077L557.302 216.214C558.197 214.346 558.163 212.397 557.188 210.781C555.673 208.288 552.187 206.946 547.858 207.206C547.634 207.219 547.423 207.314 547.264 207.473C547.106 207.631 547.011 207.843 546.998 208.067C546.743 212.395 548.08 215.881 550.573 217.392C551.397 217.895 552.345 218.16 553.31 218.159C554.246 218.148 555.167 217.926 556.006 217.511L558.866 220.371V223.652C558.866 223.894 558.963 224.127 559.134 224.299C559.306 224.47 559.539 224.567 559.782 224.567C560.025 224.567 560.257 224.47 560.429 224.299C560.601 224.127 560.697 223.894 560.697 223.652V220.277C560.693 218.821 561.189 217.408 562.101 216.273C563.278 216.888 564.584 217.217 565.912 217.234C567.197 217.238 568.457 216.887 569.554 216.22C572.927 214.179 574.733 209.424 574.385 203.501ZM555.898 214.812L553.105 212.02C552.932 211.855 552.702 211.765 552.463 211.768C552.225 211.771 551.996 211.867 551.828 212.036C551.659 212.205 551.563 212.433 551.56 212.672C551.557 212.91 551.647 213.141 551.811 213.314L554.604 216.107C553.505 216.471 552.438 216.38 551.522 215.825C549.767 214.762 548.773 212.246 548.797 209.006C552.037 208.977 554.554 209.975 555.617 211.73C556.172 212.647 556.262 213.713 555.898 214.812ZM568.606 214.656C567.073 215.584 565.27 215.655 563.44 214.885L569.583 208.74C569.755 208.569 569.851 208.336 569.851 208.093C569.851 207.85 569.755 207.618 569.583 207.446C569.412 207.274 569.179 207.177 568.936 207.177C568.693 207.177 568.461 207.274 568.289 207.445L562.145 213.583C561.371 211.752 561.441 209.949 562.373 208.417C563.968 205.785 567.751 204.32 572.594 204.431C572.704 209.274 571.24 213.061 568.606 214.656Z" fill="white"/>
<rect x="193.944" y="193.445" width="40.2756" height="40.2756" rx="20.1378" fill="#53575F"/>
<rect x="193.944" y="193.445" width="40.2756" height="40.2756" rx="20.1378" stroke="url(#paint13_linear_2031_371)" stroke-width="1.22047"/>
<path opacity="0.2" d="M222.319 204.429H205.843C205.6 204.429 205.367 204.525 205.196 204.697C205.024 204.869 204.928 205.102 204.928 205.344V221.821C204.928 222.063 205.024 222.296 205.196 222.468C205.367 222.64 205.6 222.736 205.843 222.736H222.319C222.562 222.736 222.795 222.64 222.967 222.468C223.138 222.296 223.235 222.063 223.235 221.821V205.344C223.235 205.102 223.138 204.869 222.967 204.697C222.795 204.525 222.562 204.429 222.319 204.429ZM216.827 216.329H211.335V210.836H216.827V216.329Z" fill="white"/>
<path d="M216.827 209.921H211.335C211.092 209.921 210.859 210.018 210.687 210.189C210.516 210.361 210.419 210.594 210.419 210.836V216.329C210.419 216.571 210.516 216.804 210.687 216.976C210.859 217.148 211.092 217.244 211.335 217.244H216.827C217.069 217.244 217.302 217.148 217.474 216.976C217.646 216.804 217.742 216.571 217.742 216.329V210.836C217.742 210.594 217.646 210.361 217.474 210.189C217.302 210.018 217.069 209.921 216.827 209.921ZM215.911 215.413H212.25V211.752H215.911V215.413ZM225.98 215.413H224.149V211.752H225.98C226.223 211.752 226.456 211.655 226.627 211.484C226.799 211.312 226.896 211.079 226.896 210.836C226.896 210.594 226.799 210.361 226.627 210.189C226.456 210.018 226.223 209.921 225.98 209.921H224.149V205.344C224.149 204.859 223.957 204.393 223.613 204.05C223.27 203.707 222.804 203.514 222.319 203.514H217.742V201.683C217.742 201.44 217.646 201.207 217.474 201.036C217.302 200.864 217.069 200.768 216.827 200.768C216.584 200.768 216.351 200.864 216.179 201.036C216.008 201.207 215.911 201.44 215.911 201.683V203.514H212.25V201.683C212.25 201.44 212.153 201.207 211.982 201.036C211.81 200.864 211.577 200.768 211.335 200.768C211.092 200.768 210.859 200.864 210.687 201.036C210.516 201.207 210.419 201.44 210.419 201.683V203.514H205.842C205.357 203.514 204.891 203.707 204.548 204.05C204.205 204.393 204.012 204.859 204.012 205.344V209.921H202.181C201.938 209.921 201.705 210.018 201.534 210.189C201.362 210.361 201.266 210.594 201.266 210.836C201.266 211.079 201.362 211.312 201.534 211.484C201.705 211.655 201.938 211.752 202.181 211.752H204.012V215.413H202.181C201.938 215.413 201.705 215.51 201.534 215.681C201.362 215.853 201.266 216.086 201.266 216.329C201.266 216.571 201.362 216.804 201.534 216.976C201.705 217.148 201.938 217.244 202.181 217.244H204.012V221.821C204.012 222.306 204.205 222.772 204.548 223.115C204.891 223.459 205.357 223.651 205.842 223.651H210.419V225.482C210.419 225.725 210.516 225.958 210.687 226.129C210.859 226.301 211.092 226.397 211.335 226.397C211.577 226.397 211.81 226.301 211.982 226.129C212.153 225.958 212.25 225.725 212.25 225.482V223.651H215.911V225.482C215.911 225.725 216.008 225.958 216.179 226.129C216.351 226.301 216.584 226.397 216.827 226.397C217.069 226.397 217.302 226.301 217.474 226.129C217.646 225.958 217.742 225.725 217.742 225.482V223.651H222.319C222.804 223.651 223.27 223.459 223.613 223.115C223.957 222.772 224.149 222.306 224.149 221.821V217.244H225.98C226.223 217.244 226.456 217.148 226.627 216.976C226.799 216.804 226.896 216.571 226.896 216.329C226.896 216.086 226.799 215.853 226.627 215.681C226.456 215.51 226.223 215.413 225.98 215.413ZM222.319 221.821H205.842V205.344H222.319V216.314C222.319 216.314 222.319 216.324 222.319 216.329C222.319 216.333 222.319 216.339 222.319 216.343V221.821Z" fill="white"/>
<rect x="600.362" y="269.114" width="40.2756" height="40.2756" rx="20.1378" fill="#53575F"/>
<rect x="600.362" y="269.114" width="40.2756" height="40.2756" rx="20.1378" stroke="url(#paint14_linear_2031_371)" stroke-width="1.22047"/>
<path opacity="0.2" d="M631.484 283.76L620.5 290.167L609.516 283.76L620.5 277.352L631.484 283.76Z" fill="white"/>
<path d="M632.274 294.286C632.395 294.496 632.428 294.745 632.365 294.979C632.303 295.213 632.15 295.413 631.941 295.535L620.957 301.942C620.817 302.024 620.658 302.067 620.496 302.067C620.334 302.067 620.175 302.024 620.035 301.942L609.05 295.535C608.844 295.411 608.695 295.21 608.635 294.977C608.575 294.744 608.61 294.497 608.731 294.289C608.852 294.081 609.051 293.929 609.283 293.866C609.515 293.803 609.763 293.835 609.973 293.953L620.499 300.092L631.026 293.953C631.236 293.832 631.485 293.8 631.719 293.862C631.953 293.924 632.152 294.077 632.274 294.286ZM631.026 288.461L620.499 294.6L609.973 288.461C609.764 288.357 609.524 288.337 609.301 288.404C609.078 288.471 608.889 288.62 608.772 288.822C608.656 289.023 608.62 289.262 608.673 289.489C608.726 289.715 608.864 289.913 609.057 290.042L620.042 296.45C620.182 296.531 620.341 296.575 620.503 296.575C620.665 296.575 620.824 296.531 620.964 296.45L631.948 290.042C632.054 289.983 632.146 289.903 632.22 289.807C632.295 289.711 632.349 289.602 632.381 289.485C632.413 289.368 632.421 289.245 632.405 289.125C632.389 289.005 632.349 288.889 632.288 288.785C632.227 288.68 632.146 288.588 632.049 288.515C631.952 288.442 631.842 288.389 631.724 288.359C631.607 288.329 631.485 288.322 631.365 288.34C631.245 288.358 631.13 288.399 631.026 288.461ZM608.6 283.76C608.6 283.599 608.642 283.442 608.723 283.303C608.803 283.164 608.918 283.049 609.057 282.969L620.042 276.562C620.182 276.48 620.341 276.437 620.503 276.437C620.665 276.437 620.824 276.48 620.964 276.562L631.948 282.969C632.086 283.05 632.201 283.165 632.28 283.304C632.36 283.442 632.402 283.6 632.402 283.76C632.402 283.92 632.36 284.077 632.28 284.216C632.201 284.354 632.086 284.47 631.948 284.55L620.964 290.958C620.824 291.039 620.665 291.082 620.503 291.082C620.341 291.082 620.182 291.039 620.042 290.958L609.057 284.55C608.918 284.47 608.803 284.355 608.723 284.216C608.642 284.077 608.6 283.92 608.6 283.76ZM611.332 283.76L620.499 289.108L629.666 283.76L620.499 278.412L611.332 283.76Z" fill="white"/>
<rect x="134.141" y="269.114" width="40.2756" height="40.2756" rx="20.1378" fill="#53575F"/>
<rect x="134.141" y="269.114" width="40.2756" height="40.2756" rx="20.1378" stroke="url(#paint15_linear_2031_371)" stroke-width="1.22047"/>
<path opacity="0.2" d="M163.432 283.302C163.432 284.152 163.095 284.966 162.494 285.567C161.893 286.168 161.078 286.506 160.228 286.506H157.025V283.302C157.025 282.452 157.362 281.637 157.963 281.036C158.564 280.436 159.379 280.098 160.228 280.098C161.078 280.098 161.893 280.436 162.494 281.036C163.095 281.637 163.432 282.452 163.432 283.302ZM148.329 280.098C147.479 280.098 146.664 280.436 146.063 281.036C145.463 281.637 145.125 282.452 145.125 283.302C145.125 284.152 145.463 284.966 146.063 285.567C146.664 286.168 147.479 286.506 148.329 286.506H151.532V283.302C151.532 282.452 151.195 281.637 150.594 281.036C149.993 280.436 149.178 280.098 148.329 280.098ZM160.228 291.998H157.025V295.201C157.025 296.051 157.362 296.866 157.963 297.467C158.564 298.068 159.379 298.405 160.228 298.405C161.078 298.405 161.893 298.068 162.494 297.467C163.095 296.866 163.432 296.051 163.432 295.201C163.432 294.352 163.095 293.537 162.494 292.936C161.893 292.335 161.078 291.998 160.228 291.998ZM145.125 295.201C145.125 296.051 145.463 296.866 146.063 297.467C146.664 298.068 147.479 298.405 148.329 298.405C149.178 298.405 149.993 298.068 150.594 297.467C151.195 296.866 151.532 296.051 151.532 295.201V291.998H148.329C147.479 291.998 146.664 292.335 146.063 292.936C145.463 293.537 145.125 294.352 145.125 295.201Z" fill="white"/>
<path d="M160.228 291.082H157.939V287.421H160.228C161.042 287.421 161.839 287.179 162.516 286.727C163.194 286.274 163.721 285.631 164.033 284.878C164.345 284.126 164.427 283.297 164.268 282.498C164.109 281.699 163.716 280.965 163.14 280.389C162.564 279.813 161.83 279.421 161.031 279.262C160.232 279.103 159.404 279.185 158.651 279.496C157.899 279.808 157.255 280.336 156.803 281.014C156.35 281.691 156.109 282.487 156.109 283.302V285.59H152.447V283.302C152.447 282.487 152.206 281.691 151.753 281.014C151.3 280.336 150.657 279.808 149.904 279.496C149.152 279.185 148.324 279.103 147.524 279.262C146.725 279.421 145.992 279.813 145.415 280.389C144.839 280.965 144.447 281.699 144.288 282.498C144.129 283.297 144.211 284.126 144.523 284.878C144.834 285.631 145.362 286.274 146.04 286.727C146.717 287.179 147.513 287.421 148.328 287.421H150.616V291.082H148.328C147.513 291.082 146.717 291.324 146.04 291.777C145.362 292.229 144.834 292.873 144.523 293.625C144.211 294.378 144.129 295.206 144.288 296.005C144.447 296.804 144.839 297.538 145.415 298.114C145.992 298.69 146.725 299.083 147.524 299.242C148.324 299.4 149.152 299.319 149.904 299.007C150.657 298.695 151.3 298.167 151.753 297.49C152.206 296.813 152.447 296.016 152.447 295.202V292.913H156.109V295.202C156.109 296.016 156.35 296.813 156.803 297.49C157.255 298.167 157.899 298.695 158.651 299.007C159.404 299.319 160.232 299.4 161.031 299.242C161.83 299.083 162.564 298.69 163.14 298.114C163.716 297.538 164.109 296.804 164.268 296.005C164.427 295.206 164.345 294.378 164.033 293.625C163.721 292.873 163.194 292.229 162.516 291.777C161.839 291.324 161.042 291.082 160.228 291.082ZM157.939 283.302C157.939 282.849 158.074 282.407 158.325 282.031C158.576 281.654 158.934 281.361 159.352 281.188C159.77 281.015 160.23 280.969 160.674 281.058C161.118 281.146 161.526 281.364 161.846 281.684C162.166 282.004 162.384 282.412 162.472 282.856C162.56 283.299 162.515 283.76 162.342 284.178C162.169 284.596 161.875 284.953 161.499 285.205C161.123 285.456 160.68 285.59 160.228 285.59H157.939V283.302ZM146.04 283.302C146.04 282.695 146.281 282.113 146.71 281.684C147.139 281.255 147.721 281.014 148.328 281.014C148.935 281.014 149.517 281.255 149.946 281.684C150.375 282.113 150.616 282.695 150.616 283.302V285.59H148.328C147.721 285.59 147.139 285.349 146.71 284.92C146.281 284.491 146.04 283.909 146.04 283.302ZM150.616 295.202C150.616 295.654 150.482 296.097 150.231 296.473C149.979 296.849 149.622 297.143 149.204 297.316C148.786 297.489 148.326 297.534 147.882 297.446C147.438 297.358 147.03 297.14 146.71 296.82C146.39 296.5 146.172 296.092 146.084 295.648C145.995 295.204 146.041 294.744 146.214 294.326C146.387 293.908 146.68 293.55 147.057 293.299C147.433 293.047 147.875 292.913 148.328 292.913H150.616V295.202ZM152.447 287.421H156.109V291.082H152.447V287.421ZM160.228 297.49C159.621 297.49 159.039 297.249 158.61 296.82C158.18 296.391 157.939 295.808 157.939 295.202V292.913H160.228C160.835 292.913 161.417 293.154 161.846 293.583C162.275 294.013 162.516 294.595 162.516 295.202C162.516 295.808 162.275 296.391 161.846 296.82C161.417 297.249 160.835 297.49 160.228 297.49Z" fill="white"/>
</g>
<defs>
<filter id="filter0_f_2031_371" x="-93.4758" y="-246.536" width="962.954" height="921.457" filterUnits="userSpaceOnUse" color-interpolation-filters="sRGB">
<feFlood flood-opacity="0" result="BackgroundImageFix"/>
<feBlend mode="normal" in="SourceGraphic" in2="BackgroundImageFix" result="shape"/>
<feGaussianBlur stdDeviation="100.079" result="effect1_foregroundBlur_2031_371"/>
</filter>
<filter id="filter1_d_2031_371" x="322.704" y="150.118" width="129.37" height="129.37" filterUnits="userSpaceOnUse" color-interpolation-filters="sRGB">
<feFlood flood-opacity="0" result="BackgroundImageFix"/>
<feColorMatrix in="SourceAlpha" type="matrix" values="0 0 0 0 0 0 0 0 0 0 0 0 0 0 0 0 0 0 127 0" result="hardAlpha"/>
<feOffset dy="1.22047"/>
<feGaussianBlur stdDeviation="1.83071"/>
<feComposite in2="hardAlpha" operator="out"/>
<feColorMatrix type="matrix" values="0 0 0 0 0.0117647 0 0 0 0 0.027451 0 0 0 0 0.0705882 0 0 0 0.12 0"/>
<feBlend mode="normal" in2="BackgroundImageFix" result="effect1_dropShadow_2031_371"/>
<feBlend mode="normal" in="SourceGraphic" in2="effect1_dropShadow_2031_371" result="shape"/>
</filter>
<filter id="filter2_d_2031_371" x="498.872" y="142.147" width="28.0142" height="29.9196" filterUnits="userSpaceOnUse" color-interpolation-filters="sRGB">
<feFlood flood-opacity="0" result="BackgroundImageFix"/>
<feColorMatrix in="SourceAlpha" type="matrix" values="0 0 0 0 0 0 0 0 0 0 0 0 0 0 0 0 0 0 127 0" result="hardAlpha"/>
<feOffset dy="1.22047"/>
<feGaussianBlur stdDeviation="1.83071"/>
<feComposite in2="hardAlpha" operator="out"/>
<feColorMatrix type="matrix" values="0 0 0 0 0.145098 0 0 0 0 0.388235 0 0 0 0 0.921569 0 0 0 1 0"/>
<feBlend mode="normal" in2="BackgroundImageFix" result="effect1_dropShadow_2031_371"/>
<feBlend mode="normal" in="SourceGraphic" in2="effect1_dropShadow_2031_371" result="shape"/>
</filter>
<filter id="filter3_d_2031_371" x="247.788" y="258.25" width="27.0592" height="30.7457" filterUnits="userSpaceOnUse" color-interpolation-filters="sRGB">
<feFlood flood-opacity="0" result="BackgroundImageFix"/>
<feColorMatrix in="SourceAlpha" type="matrix" values="0 0 0 0 0 0 0 0 0 0 0 0 0 0 0 0 0 0 127 0" result="hardAlpha"/>
<feOffset dy="1.22047"/>
<feGaussianBlur stdDeviation="1.83071"/>
<feComposite in2="hardAlpha" operator="out"/>
<feColorMatrix type="matrix" values="0 0 0 0 0.145098 0 0 0 0 0.388235 0 0 0 0 0.921569 0 0 0 1 0"/>
<feBlend mode="normal" in2="BackgroundImageFix" result="effect1_dropShadow_2031_371"/>
<feBlend mode="normal" in="SourceGraphic" in2="effect1_dropShadow_2031_371" result="shape"/>
</filter>
<filter id="filter4_d_2031_371" x="636.403" y="208.822" width="37.0494" height="10.8153" filterUnits="userSpaceOnUse" color-interpolation-filters="sRGB">
<feFlood flood-opacity="0" result="BackgroundImageFix"/>
<feColorMatrix in="SourceAlpha" type="matrix" values="0 0 0 0 0 0 0 0 0 0 0 0 0 0 0 0 0 0 127 0" result="hardAlpha"/>
<feOffset dy="1.22047"/>
<feGaussianBlur stdDeviation="1.83071"/>
<feComposite in2="hardAlpha" operator="out"/>
<feColorMatrix type="matrix" values="0 0 0 0 0.145098 0 0 0 0 0.388235 0 0 0 0 0.921569 0 0 0 1 0"/>
<feBlend mode="normal" in2="BackgroundImageFix" result="effect1_dropShadow_2031_371"/>
<feBlend mode="normal" in="SourceGraphic" in2="effect1_dropShadow_2031_371" result="shape"/>
</filter>
<filter id="filter5_d_2031_371" x="275.106" y="208.822" width="37.0494" height="10.8153" filterUnits="userSpaceOnUse" color-interpolation-filters="sRGB">
<feFlood flood-opacity="0" result="BackgroundImageFix"/>
<feColorMatrix in="SourceAlpha" type="matrix" values="0 0 0 0 0 0 0 0 0 0 0 0 0 0 0 0 0 0 127 0" result="hardAlpha"/>
<feOffset dy="1.22047"/>
<feGaussianBlur stdDeviation="1.83071"/>
<feComposite in2="hardAlpha" operator="out"/>
<feColorMatrix type="matrix" values="0 0 0 0 0.145098 0 0 0 0 0.388235 0 0 0 0 0.921569 0 0 0 1 0"/>
<feBlend mode="normal" in2="BackgroundImageFix" result="effect1_dropShadow_2031_371"/>
<feBlend mode="normal" in="SourceGraphic" in2="effect1_dropShadow_2031_371" result="shape"/>
</filter>
<filter id="filter6_d_2031_371" x="154.28" y="133.152" width="37.0494" height="10.8153" filterUnits="userSpaceOnUse" color-interpolation-filters="sRGB">
<feFlood flood-opacity="0" result="BackgroundImageFix"/>
<feColorMatrix in="SourceAlpha" type="matrix" values="0 0 0 0 0 0 0 0 0 0 0 0 0 0 0 0 0 0 127 0" result="hardAlpha"/>
<feOffset dy="1.22047"/>
<feGaussianBlur stdDeviation="1.83071"/>
<feComposite in2="hardAlpha" operator="out"/>
<feColorMatrix type="matrix" values="0 0 0 0 0.145098 0 0 0 0 0.388235 0 0 0 0 0.921569 0 0 0 1 0"/>
<feBlend mode="normal" in2="BackgroundImageFix" result="effect1_dropShadow_2031_371"/>
<feBlend mode="normal" in="SourceGraphic" in2="effect1_dropShadow_2031_371" result="shape"/>
</filter>
<filter id="filter7_d_2031_371" x="550.969" y="284.491" width="37.0494" height="10.8153" filterUnits="userSpaceOnUse" color-interpolation-filters="sRGB">
<feFlood flood-opacity="0" result="BackgroundImageFix"/>
<feColorMatrix in="SourceAlpha" type="matrix" values="0 0 0 0 0 0 0 0 0 0 0 0 0 0 0 0 0 0 127 0" result="hardAlpha"/>
<feOffset dy="1.22047"/>
<feGaussianBlur stdDeviation="1.83071"/>
<feComposite in2="hardAlpha" operator="out"/>
<feColorMatrix type="matrix" values="0 0 0 0 0.145098 0 0 0 0 0.388235 0 0 0 0 0.921569 0 0 0 1 0"/>
<feBlend mode="normal" in2="BackgroundImageFix" result="effect1_dropShadow_2031_371"/>
<feBlend mode="normal" in="SourceGraphic" in2="effect1_dropShadow_2031_371" result="shape"/>
</filter>
<linearGradient id="paint0_linear_2031_371" x1="649.002" y1="-17.4259" x2="418.721" y2="488.74" gradientUnits="userSpaceOnUse">
<stop stop-color="#1D4ED8"/>
<stop offset="1" stop-color="#1D4ED8"/>
</linearGradient>
<linearGradient id="paint1_linear_2031_371" x1="359.165" y1="172.392" x2="391.512" y2="274.606" gradientUnits="userSpaceOnUse">
<stop stop-color="#3B82F6"/>
<stop offset="1" stop-color="#2563EB"/>
</linearGradient>
<linearGradient id="paint2_linear_2031_371" x1="378.235" y1="194.513" x2="398.068" y2="256.299" gradientUnits="userSpaceOnUse">
<stop stop-color="white"/>
<stop offset="0.902007" stop-color="white" stop-opacity="0"/>
</linearGradient>
<linearGradient id="paint3_linear_2031_371" x1="541.953" y1="141.061" x2="545.028" y2="160.584" gradientUnits="userSpaceOnUse">
<stop stop-color="white"/>
<stop offset="0.173717" stop-color="#3B82F6"/>
<stop offset="1" stop-color="#2563EB"/>
</linearGradient>
<linearGradient id="paint4_linear_2031_371" x1="232.985" y1="288.574" x2="229.018" y2="269.213" gradientUnits="userSpaceOnUse">
<stop stop-color="white"/>
<stop offset="0.173717" stop-color="#3B82F6"/>
<stop offset="1" stop-color="#2563EB"/>
</linearGradient>
<linearGradient id="paint5_linear_2031_371" x1="685.932" y1="224.282" x2="673.843" y2="239.917" gradientUnits="userSpaceOnUse">
<stop stop-color="white"/>
<stop offset="0.173717" stop-color="#3B82F6"/>
<stop offset="1" stop-color="#2563EB"/>
</linearGradient>
<linearGradient id="paint6_linear_2031_371" x1="262.627" y1="224.282" x2="274.716" y2="239.917" gradientUnits="userSpaceOnUse">
<stop stop-color="white"/>
<stop offset="0.173717" stop-color="#3B82F6"/>
<stop offset="1" stop-color="#2563EB"/>
</linearGradient>
<linearGradient id="paint7_linear_2031_371" x1="141.801" y1="148.613" x2="153.889" y2="164.247" gradientUnits="userSpaceOnUse">
<stop stop-color="white"/>
<stop offset="0.173717" stop-color="#3B82F6"/>
<stop offset="1" stop-color="#2563EB"/>
</linearGradient>
<linearGradient id="paint8_linear_2031_371" x1="600.498" y1="299.951" x2="588.409" y2="315.586" gradientUnits="userSpaceOnUse">
<stop stop-color="white"/>
<stop offset="0.173717" stop-color="#3B82F6"/>
<stop offset="1" stop-color="#2563EB"/>
</linearGradient>
<linearGradient id="paint9_linear_2031_371" x1="633.925" y1="125.098" x2="646.13" y2="183.071" gradientUnits="userSpaceOnUse">
<stop stop-color="#2563EB"/>
<stop offset="0.838323" stop-color="white" stop-opacity="0"/>
</linearGradient>
<linearGradient id="paint10_linear_2031_371" x1="633.925" y1="125.098" x2="646.13" y2="183.071" gradientUnits="userSpaceOnUse">
<stop stop-color="#2563EB"/>
<stop offset="0.838323" stop-color="white" stop-opacity="0"/>
</linearGradient>
<linearGradient id="paint11_linear_2031_371" x1="126.208" y1="125.098" x2="138.413" y2="183.071" gradientUnits="userSpaceOnUse">
<stop stop-color="#2563EB"/>
<stop offset="0.838323" stop-color="white" stop-opacity="0"/>
</linearGradient>
<linearGradient id="paint12_linear_2031_371" x1="553.374" y1="199.547" x2="565.579" y2="257.519" gradientUnits="userSpaceOnUse">
<stop stop-color="#2563EB"/>
<stop offset="0.838323" stop-color="white" stop-opacity="0"/>
</linearGradient>
<linearGradient id="paint13_linear_2031_371" x1="206.759" y1="199.547" x2="218.964" y2="257.519" gradientUnits="userSpaceOnUse">
<stop stop-color="#2563EB"/>
<stop offset="0.838323" stop-color="white" stop-opacity="0"/>
</linearGradient>
<linearGradient id="paint14_linear_2031_371" x1="613.177" y1="275.216" x2="625.382" y2="333.189" gradientUnits="userSpaceOnUse">
<stop stop-color="#2563EB"/>
<stop offset="0.838323" stop-color="white" stop-opacity="0"/>
</linearGradient>
<linearGradient id="paint15_linear_2031_371" x1="146.956" y1="275.216" x2="159.161" y2="333.189" gradientUnits="userSpaceOnUse">
<stop stop-color="#2563EB"/>
<stop offset="0.838323" stop-color="white" stop-opacity="0"/>
</linearGradient>
<clipPath id="clip0_2031_371">
<rect x="0.5" y="-0.000244141" width="775" height="428.386" rx="14.6457" fill="white"/>
</clipPath>
</defs>
</svg>
