<svg width="501" height="352" viewBox="0 0 501 352" fill="none" xmlns="http://www.w3.org/2000/svg">
<g clip-path="url(#clip0_2031_742)">
<rect x="0.5" y="0.885742" width="500" height="271" rx="12" fill="#1D2432"/>
<path d="M26.5 -29.1143V308.386" stroke="white" stroke-opacity="0.32" stroke-linecap="square" stroke-linejoin="round"/>
<path d="M474.5 -29.1143V308.386" stroke="white" stroke-opacity="0.32" stroke-linecap="square" stroke-linejoin="round"/>
<path d="M-15.5 26.8857H545.5" stroke="white" stroke-opacity="0.32" stroke-linecap="square" stroke-linejoin="round"/>
<path d="M-15.5 245.886H545.5" stroke="white" stroke-opacity="0.32" stroke-linecap="square" stroke-linejoin="round"/>
<g filter="url(#filter0_f_2031_742)">
<path fill-rule="evenodd" clip-rule="evenodd" d="M87.5 -37.1143L437.5 229.914L221.882 271.886L87.5 -37.1143Z" fill="url(#paint0_linear_2031_742)" fill-opacity="0.24"/>
</g>
<path d="M360.5 109.886H139.5" stroke="#3B82F6" stroke-opacity="0.5" stroke-width="3" stroke-linecap="square" stroke-linejoin="round" stroke-dasharray="8 8"/>
<g opacity="0.24" filter="url(#filter1_f_2031_742)">
<path d="M174.5 109.886C174.5 131.977 156.591 149.886 134.5 149.886C112.409 149.886 94.5 131.977 94.5 109.886C94.5 87.7944 112.409 69.8857 134.5 69.8857C156.591 69.8857 174.5 87.7944 174.5 109.886Z" fill="#3B82F6"/>
</g>
<g opacity="0.96" filter="url(#filter2_d_2031_742)">
<circle cx="134.5" cy="109.886" r="40" fill="white"/>
</g>
<g filter="url(#filter3_d_2031_742)">
<circle cx="134.5" cy="109.886" r="32.5" fill="url(#paint1_linear_2031_742)"/>
<circle cx="134.5" cy="109.886" r="31" stroke="#F3F3F3" stroke-opacity="0.12" stroke-width="3"/>
</g>
<path opacity="0.2" d="M135.5 97.8857V120.886H123.5V104.554C123.5 104.39 123.54 104.228 123.618 104.082C123.696 103.937 123.808 103.813 123.945 103.722L133.945 97.0557C134.095 96.9553 134.27 96.8976 134.451 96.8888C134.632 96.8799 134.811 96.9202 134.971 97.0054C135.13 97.0905 135.264 97.2174 135.357 97.3724C135.45 97.5275 135.5 97.7049 135.5 97.8857Z" fill="white"/>
<path d="M148.5 119.886H146.5V105.886C146.5 105.355 146.289 104.847 145.914 104.472C145.539 104.096 145.03 103.886 144.5 103.886H136.5V97.8858C136.5 97.5236 136.402 97.1682 136.216 96.8574C136.03 96.5466 135.763 96.2922 135.444 96.1212C135.125 95.9503 134.765 95.8693 134.403 95.8868C134.041 95.9043 133.691 96.0198 133.39 96.2208L123.39 102.886C123.116 103.069 122.891 103.317 122.736 103.608C122.58 103.899 122.499 104.223 122.5 104.553V119.886H120.5C120.235 119.886 119.98 119.991 119.793 120.179C119.605 120.366 119.5 120.621 119.5 120.886C119.5 121.151 119.605 121.405 119.793 121.593C119.98 121.78 120.235 121.886 120.5 121.886H148.5C148.765 121.886 149.02 121.78 149.207 121.593C149.395 121.405 149.5 121.151 149.5 120.886C149.5 120.621 149.395 120.366 149.207 120.179C149.02 119.991 148.765 119.886 148.5 119.886ZM144.5 105.886V119.886H136.5V105.886H144.5ZM124.5 104.553L134.5 97.8858V119.886H124.5V104.553ZM132.5 107.886V109.886C132.5 110.151 132.395 110.405 132.207 110.593C132.02 110.78 131.765 110.886 131.5 110.886C131.235 110.886 130.98 110.78 130.793 110.593C130.605 110.405 130.5 110.151 130.5 109.886V107.886C130.5 107.621 130.605 107.366 130.793 107.179C130.98 106.991 131.235 106.886 131.5 106.886C131.765 106.886 132.02 106.991 132.207 107.179C132.395 107.366 132.5 107.621 132.5 107.886ZM128.5 107.886V109.886C128.5 110.151 128.395 110.405 128.207 110.593C128.02 110.78 127.765 110.886 127.5 110.886C127.235 110.886 126.98 110.78 126.793 110.593C126.605 110.405 126.5 110.151 126.5 109.886V107.886C126.5 107.621 126.605 107.366 126.793 107.179C126.98 106.991 127.235 106.886 127.5 106.886C127.765 106.886 128.02 106.991 128.207 107.179C128.395 107.366 128.5 107.621 128.5 107.886ZM128.5 114.886V116.886C128.5 117.151 128.395 117.405 128.207 117.593C128.02 117.78 127.765 117.886 127.5 117.886C127.235 117.886 126.98 117.78 126.793 117.593C126.605 117.405 126.5 117.151 126.5 116.886V114.886C126.5 114.621 126.605 114.366 126.793 114.179C126.98 113.991 127.235 113.886 127.5 113.886C127.765 113.886 128.02 113.991 128.207 114.179C128.395 114.366 128.5 114.621 128.5 114.886ZM132.5 114.886V116.886C132.5 117.151 132.395 117.405 132.207 117.593C132.02 117.78 131.765 117.886 131.5 117.886C131.235 117.886 130.98 117.78 130.793 117.593C130.605 117.405 130.5 117.151 130.5 116.886V114.886C130.5 114.621 130.605 114.366 130.793 114.179C130.98 113.991 131.235 113.886 131.5 113.886C131.765 113.886 132.02 113.991 132.207 114.179C132.395 114.366 132.5 114.621 132.5 114.886Z" fill="white"/>
<g opacity="0.24" filter="url(#filter4_f_2031_742)">
<path d="M290.5 109.886C290.5 131.977 272.591 149.886 250.5 149.886C228.409 149.886 210.5 131.977 210.5 109.886C210.5 87.7944 228.409 69.8857 250.5 69.8857C272.591 69.8857 290.5 87.7944 290.5 109.886Z" fill="#3B82F6"/>
</g>
<g opacity="0.96" filter="url(#filter5_d_2031_742)">
<circle cx="250.5" cy="109.886" r="40" fill="white"/>
</g>
<g filter="url(#filter6_d_2031_742)">
<circle cx="250.5" cy="109.886" r="32.5" fill="url(#paint2_linear_2031_742)"/>
<circle cx="250.5" cy="109.886" r="31" stroke="#F3F3F3" stroke-opacity="0.12" stroke-width="3"/>
</g>
<path opacity="0.2" d="M262.5 104.886V118.886C262.5 119.151 262.395 119.405 262.207 119.593C262.02 119.78 261.765 119.886 261.5 119.886H241.5C240.97 119.886 240.461 119.675 240.086 119.3C239.711 118.925 239.5 118.416 239.5 117.886V101.886C239.5 102.416 239.711 102.925 240.086 103.3C240.461 103.675 240.97 103.886 241.5 103.886H261.5C261.765 103.886 262.02 103.991 262.207 104.179C262.395 104.366 262.5 104.621 262.5 104.886Z" fill="white"/>
<path d="M261.5 102.886H241.5C241.235 102.886 240.98 102.78 240.793 102.593C240.605 102.405 240.5 102.151 240.5 101.886C240.5 101.621 240.605 101.366 240.793 101.179C240.98 100.991 241.235 100.886 241.5 100.886H258.5C258.765 100.886 259.02 100.78 259.207 100.593C259.395 100.405 259.5 100.151 259.5 99.8857C259.5 99.6205 259.395 99.3662 259.207 99.1786C259.02 98.9911 258.765 98.8857 258.5 98.8857H241.5C240.704 98.8857 239.941 99.2018 239.379 99.7644C238.816 100.327 238.5 101.09 238.5 101.886V117.886C238.5 118.681 238.816 119.444 239.379 120.007C239.941 120.57 240.704 120.886 241.5 120.886H261.5C262.03 120.886 262.539 120.675 262.914 120.3C263.289 119.925 263.5 119.416 263.5 118.886V104.886C263.5 104.355 263.289 103.847 262.914 103.472C262.539 103.096 262.03 102.886 261.5 102.886ZM261.5 118.886H241.5C241.235 118.886 240.98 118.78 240.793 118.593C240.605 118.405 240.5 118.151 240.5 117.886V104.714C240.821 104.828 241.159 104.886 241.5 104.886H261.5V118.886ZM255.5 111.386C255.5 111.089 255.588 110.799 255.753 110.552C255.918 110.306 256.152 110.113 256.426 110C256.7 109.886 257.002 109.857 257.293 109.915C257.584 109.972 257.851 110.115 258.061 110.325C258.27 110.535 258.413 110.802 258.471 111.093C258.529 111.384 258.499 111.686 258.386 111.96C258.272 112.234 258.08 112.468 257.833 112.633C257.587 112.798 257.297 112.886 257 112.886C256.602 112.886 256.221 112.728 255.939 112.446C255.658 112.165 255.5 111.784 255.5 111.386Z" fill="white"/>
<g opacity="0.24" filter="url(#filter7_f_2031_742)">
<path d="M406.5 109.886C406.5 131.977 388.591 149.886 366.5 149.886C344.409 149.886 326.5 131.977 326.5 109.886C326.5 87.7944 344.409 69.8857 366.5 69.8857C388.591 69.8857 406.5 87.7944 406.5 109.886Z" fill="#3B82F6"/>
</g>
<g opacity="0.96" filter="url(#filter8_d_2031_742)">
<circle cx="366.5" cy="109.886" r="40" fill="white"/>
</g>
<g filter="url(#filter9_d_2031_742)">
<circle cx="366.5" cy="109.886" r="32.5" fill="url(#paint3_linear_2031_742)"/>
<circle cx="366.5" cy="109.886" r="31" stroke="#F3F3F3" stroke-opacity="0.12" stroke-width="3"/>
</g>
<path opacity="0.2" d="M376.5 98.8857H356.5C356.235 98.8857 355.98 98.9911 355.793 99.1786C355.605 99.3662 355.5 99.6205 355.5 99.8857V119.886C355.5 120.151 355.605 120.405 355.793 120.593C355.98 120.78 356.235 120.886 356.5 120.886H376.5C376.765 120.886 377.02 120.78 377.207 120.593C377.395 120.405 377.5 120.151 377.5 119.886V99.8857C377.5 99.6205 377.395 99.3662 377.207 99.1786C377.02 98.9911 376.765 98.8857 376.5 98.8857ZM361.5 116.886C361.104 116.886 360.718 116.768 360.389 116.549C360.06 116.329 359.804 116.017 359.652 115.651C359.501 115.286 359.461 114.884 359.538 114.496C359.616 114.108 359.806 113.751 360.086 113.472C360.365 113.192 360.722 113.001 361.11 112.924C361.498 112.847 361.9 112.887 362.265 113.038C362.631 113.189 362.943 113.446 363.163 113.775C363.383 114.103 363.5 114.49 363.5 114.886C363.5 115.416 363.289 115.925 362.914 116.3C362.539 116.675 362.03 116.886 361.5 116.886ZM371.5 108.886C371.104 108.886 370.718 108.768 370.389 108.549C370.06 108.329 369.804 108.017 369.652 107.651C369.501 107.286 369.461 106.884 369.538 106.496C369.616 106.108 369.806 105.751 370.086 105.472C370.365 105.192 370.722 105.001 371.11 104.924C371.498 104.847 371.9 104.887 372.265 105.038C372.631 105.189 372.943 105.446 373.163 105.775C373.383 106.104 373.5 106.49 373.5 106.886C373.5 107.416 373.289 107.925 372.914 108.3C372.539 108.675 372.03 108.886 371.5 108.886Z" fill="white"/>
<path d="M376.5 97.8857H356.5C355.97 97.8857 355.461 98.0965 355.086 98.4715C354.711 98.8466 354.5 99.3553 354.5 99.8857V119.886C354.5 120.416 354.711 120.925 355.086 121.3C355.461 121.675 355.97 121.886 356.5 121.886H376.5C377.03 121.886 377.539 121.675 377.914 121.3C378.289 120.925 378.5 120.416 378.5 119.886V99.8857C378.5 99.3553 378.289 98.8466 377.914 98.4715C377.539 98.0965 377.03 97.8857 376.5 97.8857ZM361.5 113.886C361.698 113.886 361.891 113.944 362.056 114.054C362.22 114.164 362.348 114.32 362.424 114.503C362.5 114.686 362.519 114.887 362.481 115.081C362.442 115.275 362.347 115.453 362.207 115.593C362.067 115.733 361.889 115.828 361.695 115.867C361.501 115.905 361.3 115.885 361.117 115.81C360.935 115.734 360.778 115.606 360.669 115.441C360.559 115.277 360.5 115.084 360.5 114.886C360.5 114.621 360.605 114.366 360.793 114.179C360.98 113.991 361.235 113.886 361.5 113.886ZM356.5 99.8857H360.5V112.058C359.833 112.294 359.27 112.758 358.912 113.369C358.554 113.979 358.424 114.696 358.543 115.394C358.663 116.091 359.025 116.724 359.566 117.18C360.107 117.636 360.792 117.887 361.5 117.887C362.208 117.887 362.893 117.636 363.434 117.18C363.975 116.724 364.337 116.091 364.457 115.394C364.576 114.696 364.446 113.979 364.088 113.369C363.73 112.758 363.167 112.294 362.5 112.058V108.299L368.5 114.299V119.886H356.5V99.8857ZM376.5 119.886H370.5V113.886C370.5 113.754 370.474 113.624 370.424 113.503C370.374 113.381 370.3 113.271 370.208 113.178L362.5 105.472V99.8857H366.5V102.886C366.5 103.017 366.526 103.147 366.576 103.269C366.626 103.39 366.7 103.5 366.792 103.593L368.792 105.593C368.599 105.997 368.499 106.438 368.5 106.886C368.5 107.479 368.676 108.059 369.006 108.552C369.335 109.046 369.804 109.43 370.352 109.657C370.9 109.884 371.503 109.944 372.085 109.828C372.667 109.712 373.202 109.427 373.621 109.007C374.041 108.588 374.327 108.053 374.442 107.471C374.558 106.889 374.499 106.286 374.272 105.738C374.045 105.19 373.66 104.721 373.167 104.391C372.673 104.062 372.093 103.886 371.5 103.886C371.053 103.885 370.611 103.985 370.208 104.179L368.5 102.472V99.8857H376.5V119.886ZM371.5 105.886C371.698 105.886 371.891 105.944 372.056 106.054C372.22 106.164 372.348 106.32 372.424 106.503C372.5 106.686 372.519 106.887 372.481 107.081C372.442 107.275 372.347 107.453 372.207 107.593C372.067 107.733 371.889 107.828 371.695 107.867C371.501 107.905 371.3 107.885 371.117 107.81C370.935 107.734 370.778 107.606 370.669 107.441C370.559 107.277 370.5 107.084 370.5 106.886C370.5 106.621 370.605 106.366 370.793 106.179C370.98 105.991 371.235 105.886 371.5 105.886Z" fill="white"/>
</g>
<g filter="url(#filter10_d_2031_742)">
<rect x="68.5" y="189.886" width="364" height="118" rx="12" fill="white"/>
<rect x="69" y="190.386" width="363" height="117" rx="11.5" stroke="#D9D9D9" stroke-opacity="0.6"/>
<rect x="88.5" y="221.886" width="94" height="26" rx="13" fill="#F6F8F7"/>
<rect x="89" y="222.386" width="93" height="25" rx="12.5" stroke="#D9D9D9" stroke-opacity="0.85098"/>
<path d="M105.5 229.198C104.375 229.198 103.276 229.532 102.34 230.157C101.405 230.782 100.676 231.67 100.245 232.709C99.815 233.748 99.7023 234.892 99.9218 235.995C100.141 237.099 100.683 238.112 101.478 238.907C102.274 239.703 103.287 240.245 104.39 240.464C105.494 240.683 106.637 240.571 107.677 240.14C108.716 239.71 109.604 238.981 110.229 238.046C110.854 237.11 111.188 236.011 111.188 234.886C111.186 233.378 110.586 231.932 109.52 230.866C108.454 229.8 107.008 229.2 105.5 229.198ZM107.997 233.883L104.935 236.945C104.894 236.986 104.846 237.018 104.793 237.04C104.739 237.062 104.682 237.074 104.625 237.074C104.568 237.074 104.511 237.062 104.457 237.04C104.404 237.018 104.356 236.986 104.315 236.945L103.003 235.633C102.921 235.551 102.875 235.439 102.875 235.323C102.875 235.207 102.921 235.096 103.003 235.014C103.085 234.932 103.196 234.885 103.313 234.885C103.429 234.885 103.54 234.932 103.622 235.014L104.625 236.017L107.378 233.264C107.419 233.223 107.467 233.191 107.52 233.169C107.573 233.147 107.63 233.135 107.688 233.135C107.745 233.135 107.802 233.147 107.855 233.169C107.908 233.191 107.956 233.223 107.997 233.264C108.038 233.304 108.07 233.353 108.092 233.406C108.114 233.459 108.125 233.516 108.125 233.573C108.125 233.631 108.114 233.688 108.092 233.741C108.07 233.794 108.038 233.842 107.997 233.883Z" fill="#2A69EE"/>
<rect x="122.5" y="232.886" width="50" height="4" rx="2" fill="#D9D9D9"/>
<rect x="203.5" y="221.886" width="94" height="26" rx="13" fill="#F6F8F7"/>
<rect x="204" y="222.386" width="93" height="25" rx="12.5" stroke="#D9D9D9" stroke-opacity="0.85098"/>
<path d="M220.5 229.198C219.375 229.198 218.276 229.532 217.34 230.157C216.405 230.782 215.676 231.67 215.245 232.709C214.815 233.748 214.702 234.892 214.922 235.995C215.141 237.099 215.683 238.112 216.478 238.907C217.274 239.703 218.287 240.245 219.39 240.464C220.494 240.683 221.637 240.571 222.677 240.14C223.716 239.71 224.604 238.981 225.229 238.046C225.854 237.11 226.188 236.011 226.188 234.886C226.186 233.378 225.586 231.932 224.52 230.866C223.454 229.8 222.008 229.2 220.5 229.198ZM222.997 233.883L219.935 236.945C219.894 236.986 219.846 237.018 219.793 237.04C219.739 237.062 219.682 237.074 219.625 237.074C219.568 237.074 219.511 237.062 219.457 237.04C219.404 237.018 219.356 236.986 219.315 236.945L218.003 235.633C217.921 235.551 217.875 235.439 217.875 235.323C217.875 235.207 217.921 235.096 218.003 235.014C218.085 234.932 218.196 234.885 218.313 234.885C218.429 234.885 218.54 234.932 218.622 235.014L219.625 236.017L222.378 233.264C222.419 233.223 222.467 233.191 222.52 233.169C222.573 233.147 222.63 233.135 222.688 233.135C222.745 233.135 222.802 233.147 222.855 233.169C222.908 233.191 222.956 233.223 222.997 233.264C223.038 233.304 223.07 233.353 223.092 233.406C223.114 233.459 223.125 233.516 223.125 233.573C223.125 233.631 223.114 233.688 223.092 233.741C223.07 233.794 223.038 233.842 222.997 233.883Z" fill="#2A69EE"/>
<rect x="237.5" y="232.886" width="50" height="4" rx="2" fill="#D9D9D9"/>
<rect x="318.5" y="221.886" width="94" height="26" rx="13" fill="#F6F8F7"/>
<rect x="319" y="222.386" width="93" height="25" rx="12.5" stroke="#D9D9D9" stroke-opacity="0.85098"/>
<path d="M335.5 229.198C334.375 229.198 333.276 229.532 332.34 230.157C331.405 230.782 330.676 231.67 330.245 232.709C329.815 233.748 329.702 234.892 329.922 235.995C330.141 237.099 330.683 238.112 331.478 238.907C332.274 239.703 333.287 240.245 334.39 240.464C335.494 240.683 336.637 240.571 337.677 240.14C338.716 239.71 339.604 238.981 340.229 238.046C340.854 237.11 341.188 236.011 341.188 234.886C341.186 233.378 340.586 231.932 339.52 230.866C338.454 229.8 337.008 229.2 335.5 229.198ZM337.997 233.883L334.935 236.945C334.894 236.986 334.846 237.018 334.793 237.04C334.739 237.062 334.682 237.074 334.625 237.074C334.568 237.074 334.511 237.062 334.457 237.04C334.404 237.018 334.356 236.986 334.315 236.945L333.003 235.633C332.921 235.551 332.875 235.439 332.875 235.323C332.875 235.207 332.921 235.096 333.003 235.014C333.085 234.932 333.196 234.885 333.313 234.885C333.429 234.885 333.54 234.932 333.622 235.014L334.625 236.017L337.378 233.264C337.419 233.223 337.467 233.191 337.52 233.169C337.573 233.147 337.63 233.135 337.688 233.135C337.745 233.135 337.802 233.147 337.855 233.169C337.908 233.191 337.956 233.223 337.997 233.264C338.038 233.304 338.07 233.353 338.092 233.406C338.114 233.459 338.125 233.516 338.125 233.573C338.125 233.631 338.114 233.688 338.092 233.741C338.07 233.794 338.038 233.842 337.997 233.883Z" fill="#2A69EE"/>
<rect x="352.5" y="232.886" width="50" height="4" rx="2" fill="#D9D9D9"/>
<rect x="88.5" y="261.886" width="94" height="26" rx="13" fill="#F6F8F7"/>
<rect x="89" y="262.386" width="93" height="25" rx="12.5" stroke="#D9D9D9" stroke-opacity="0.85098"/>
<path d="M105.5 269.198C104.375 269.198 103.276 269.532 102.34 270.157C101.405 270.782 100.676 271.67 100.245 272.709C99.815 273.748 99.7023 274.892 99.9218 275.995C100.141 277.099 100.683 278.112 101.478 278.907C102.274 279.703 103.287 280.245 104.39 280.464C105.494 280.683 106.637 280.571 107.677 280.14C108.716 279.71 109.604 278.981 110.229 278.046C110.854 277.11 111.188 276.011 111.188 274.886C111.186 273.378 110.586 271.932 109.52 270.866C108.454 269.8 107.008 269.2 105.5 269.198ZM107.997 273.883L104.935 276.945C104.894 276.986 104.846 277.018 104.793 277.04C104.739 277.062 104.682 277.074 104.625 277.074C104.568 277.074 104.511 277.062 104.457 277.04C104.404 277.018 104.356 276.986 104.315 276.945L103.003 275.633C102.921 275.551 102.875 275.439 102.875 275.323C102.875 275.207 102.921 275.096 103.003 275.014C103.085 274.932 103.196 274.885 103.313 274.885C103.429 274.885 103.54 274.932 103.622 275.014L104.625 276.017L107.378 273.264C107.419 273.223 107.467 273.191 107.52 273.169C107.573 273.147 107.63 273.135 107.688 273.135C107.745 273.135 107.802 273.147 107.855 273.169C107.908 273.191 107.956 273.223 107.997 273.264C108.038 273.304 108.07 273.353 108.092 273.406C108.114 273.459 108.125 273.516 108.125 273.573C108.125 273.631 108.114 273.688 108.092 273.741C108.07 273.794 108.038 273.842 107.997 273.883Z" fill="#2A69EE"/>
<rect x="122.5" y="272.886" width="50" height="4" rx="2" fill="#D9D9D9"/>
<rect x="203.5" y="261.886" width="94" height="26" rx="13" fill="#F6F8F7"/>
<rect x="204" y="262.386" width="93" height="25" rx="12.5" stroke="#D9D9D9" stroke-opacity="0.85098"/>
<path d="M220.5 269.198C219.375 269.198 218.276 269.532 217.34 270.157C216.405 270.782 215.676 271.67 215.245 272.709C214.815 273.748 214.702 274.892 214.922 275.995C215.141 277.099 215.683 278.112 216.478 278.907C217.274 279.703 218.287 280.245 219.39 280.464C220.494 280.683 221.637 280.571 222.677 280.14C223.716 279.71 224.604 278.981 225.229 278.046C225.854 277.11 226.188 276.011 226.188 274.886C226.186 273.378 225.586 271.932 224.52 270.866C223.454 269.8 222.008 269.2 220.5 269.198ZM222.997 273.883L219.935 276.945C219.894 276.986 219.846 277.018 219.793 277.04C219.739 277.062 219.682 277.074 219.625 277.074C219.568 277.074 219.511 277.062 219.457 277.04C219.404 277.018 219.356 276.986 219.315 276.945L218.003 275.633C217.921 275.551 217.875 275.439 217.875 275.323C217.875 275.207 217.921 275.096 218.003 275.014C218.085 274.932 218.196 274.885 218.313 274.885C218.429 274.885 218.54 274.932 218.622 275.014L219.625 276.017L222.378 273.264C222.419 273.223 222.467 273.191 222.52 273.169C222.573 273.147 222.63 273.135 222.688 273.135C222.745 273.135 222.802 273.147 222.855 273.169C222.908 273.191 222.956 273.223 222.997 273.264C223.038 273.304 223.07 273.353 223.092 273.406C223.114 273.459 223.125 273.516 223.125 273.573C223.125 273.631 223.114 273.688 223.092 273.741C223.07 273.794 223.038 273.842 222.997 273.883Z" fill="#2A69EE"/>
<rect x="237.5" y="272.886" width="50" height="4" rx="2" fill="#D9D9D9"/>
<rect x="318.5" y="261.886" width="94" height="26" rx="13" fill="#F6F8F7"/>
<rect x="319" y="262.386" width="93" height="25" rx="12.5" stroke="#D9D9D9" stroke-opacity="0.85098"/>
<path d="M335.5 269.198C334.375 269.198 333.276 269.532 332.34 270.157C331.405 270.782 330.676 271.67 330.245 272.709C329.815 273.748 329.702 274.892 329.922 275.995C330.141 277.099 330.683 278.112 331.478 278.907C332.274 279.703 333.287 280.245 334.39 280.464C335.494 280.683 336.637 280.571 337.677 280.14C338.716 279.71 339.604 278.981 340.229 278.046C340.854 277.11 341.188 276.011 341.188 274.886C341.186 273.378 340.586 271.932 339.52 270.866C338.454 269.8 337.008 269.2 335.5 269.198ZM337.997 273.883L334.935 276.945C334.894 276.986 334.846 277.018 334.793 277.04C334.739 277.062 334.682 277.074 334.625 277.074C334.568 277.074 334.511 277.062 334.457 277.04C334.404 277.018 334.356 276.986 334.315 276.945L333.003 275.633C332.921 275.551 332.875 275.439 332.875 275.323C332.875 275.207 332.921 275.096 333.003 275.014C333.085 274.932 333.196 274.885 333.313 274.885C333.429 274.885 333.54 274.932 333.622 275.014L334.625 276.017L337.378 273.264C337.419 273.223 337.467 273.191 337.52 273.169C337.573 273.147 337.63 273.135 337.688 273.135C337.745 273.135 337.802 273.147 337.855 273.169C337.908 273.191 337.956 273.223 337.997 273.264C338.038 273.304 338.07 273.353 338.092 273.406C338.114 273.459 338.125 273.516 338.125 273.573C338.125 273.631 338.114 273.688 338.092 273.741C338.07 273.794 338.038 273.842 337.997 273.883Z" fill="#2A69EE"/>
<rect x="352.5" y="272.886" width="50" height="4" rx="2" fill="#D9D9D9"/>
</g>
<rect x="203.5" y="181.886" width="77" height="26" rx="13" fill="#2968ED"/>
<rect x="204" y="182.386" width="76" height="25" rx="12.5" stroke="#D9D9D9" stroke-opacity="0.85098"/>
<path d="M220.5 189.198C219.375 189.198 218.276 189.532 217.34 190.157C216.405 190.782 215.676 191.67 215.245 192.709C214.815 193.748 214.702 194.892 214.922 195.995C215.141 197.099 215.683 198.112 216.478 198.907C217.274 199.703 218.287 200.245 219.39 200.464C220.494 200.683 221.637 200.571 222.677 200.14C223.716 199.71 224.604 198.981 225.229 198.046C225.854 197.11 226.188 196.011 226.188 194.886C226.186 193.378 225.586 191.932 224.52 190.866C223.454 189.8 222.008 189.2 220.5 189.198ZM222.997 193.883L219.935 196.945C219.894 196.986 219.846 197.018 219.793 197.04C219.739 197.062 219.682 197.074 219.625 197.074C219.568 197.074 219.511 197.062 219.457 197.04C219.404 197.018 219.356 196.986 219.315 196.945L218.003 195.633C217.921 195.551 217.875 195.439 217.875 195.323C217.875 195.207 217.921 195.096 218.003 195.014C218.085 194.932 218.196 194.885 218.313 194.885C218.429 194.885 218.54 194.932 218.622 195.014L219.625 196.017L222.378 193.264C222.419 193.223 222.467 193.191 222.52 193.169C222.573 193.147 222.63 193.135 222.688 193.135C222.745 193.135 222.802 193.147 222.855 193.169C222.908 193.191 222.956 193.223 222.997 193.264C223.038 193.304 223.07 193.353 223.092 193.406C223.114 193.459 223.125 193.516 223.125 193.573C223.125 193.631 223.114 193.688 223.092 193.741C223.07 193.794 223.038 193.842 222.997 193.883Z" fill="white"/>
<path d="M236.299 198.886V191.613H240.859V192.558H237.396V194.774H240.621V195.715H237.396V197.941H240.901V198.886H236.299ZM243.301 191.613V198.886H242.239V191.613H243.301ZM244.729 198.886V193.431H245.791V198.886H244.729ZM245.266 192.59C245.081 192.59 244.922 192.528 244.79 192.405C244.66 192.279 244.594 192.13 244.594 191.957C244.594 191.782 244.66 191.633 244.79 191.51C244.922 191.385 245.081 191.322 245.266 191.322C245.45 191.322 245.608 191.385 245.738 191.51C245.871 191.633 245.937 191.782 245.937 191.957C245.937 192.13 245.871 192.279 245.738 192.405C245.608 192.528 245.45 192.59 245.266 192.59ZM249.507 201.045C249.073 201.045 248.7 200.988 248.388 200.874C248.078 200.761 247.825 200.61 247.628 200.423C247.432 200.236 247.285 200.032 247.188 199.809L248.1 199.433C248.164 199.537 248.249 199.647 248.356 199.763C248.465 199.881 248.612 199.982 248.796 200.065C248.983 200.148 249.224 200.189 249.517 200.189C249.92 200.189 250.252 200.091 250.515 199.894C250.778 199.7 250.909 199.39 250.909 198.964V197.891H250.842C250.778 198.007 250.686 198.136 250.565 198.278C250.446 198.421 250.283 198.544 250.075 198.648C249.866 198.752 249.595 198.804 249.262 198.804C248.831 198.804 248.442 198.703 248.097 198.502C247.753 198.299 247.481 197.999 247.28 197.604C247.081 197.206 246.982 196.717 246.982 196.137C246.982 195.557 247.08 195.06 247.276 194.646C247.475 194.231 247.748 193.914 248.093 193.694C248.439 193.471 248.831 193.36 249.269 193.36C249.607 193.36 249.881 193.417 250.089 193.531C250.297 193.642 250.459 193.772 250.575 193.921C250.694 194.07 250.785 194.202 250.849 194.315H250.927V193.431H251.968V199.006C251.968 199.475 251.859 199.86 251.641 200.161C251.423 200.461 251.128 200.684 250.757 200.828C250.387 200.973 249.971 201.045 249.507 201.045ZM249.496 197.923C249.801 197.923 250.059 197.852 250.27 197.71C250.483 197.566 250.644 197.36 250.753 197.092C250.864 196.823 250.92 196.499 250.92 196.123C250.92 195.756 250.865 195.433 250.757 195.153C250.648 194.874 250.488 194.656 250.277 194.5C250.066 194.341 249.806 194.262 249.496 194.262C249.176 194.262 248.91 194.345 248.697 194.511C248.484 194.674 248.323 194.897 248.214 195.178C248.107 195.46 248.054 195.775 248.054 196.123C248.054 196.48 248.109 196.794 248.218 197.064C248.326 197.334 248.487 197.545 248.7 197.696C248.916 197.848 249.181 197.923 249.496 197.923ZM253.392 198.886V193.431H254.453V198.886H253.392ZM253.928 192.59C253.743 192.59 253.584 192.528 253.452 192.405C253.322 192.279 253.257 192.13 253.257 191.957C253.257 191.782 253.322 191.633 253.452 191.51C253.584 191.385 253.743 191.322 253.928 191.322C254.112 191.322 254.27 191.385 254.4 191.51C254.533 191.633 254.599 191.782 254.599 191.957C254.599 192.13 254.533 192.279 254.4 192.405C254.27 192.528 254.112 192.59 253.928 192.59ZM255.967 198.886V191.613H257.029V194.315H257.093C257.154 194.202 257.243 194.07 257.359 193.921C257.475 193.772 257.636 193.642 257.842 193.531C258.048 193.417 258.32 193.36 258.659 193.36C259.099 193.36 259.492 193.471 259.838 193.694C260.183 193.917 260.454 194.237 260.651 194.656C260.85 195.075 260.949 195.58 260.949 196.169C260.949 196.759 260.851 197.264 260.654 197.685C260.458 198.104 260.188 198.428 259.845 198.655C259.502 198.88 259.11 198.992 258.669 198.992C258.338 198.992 258.067 198.937 257.856 198.825C257.648 198.714 257.484 198.584 257.366 198.435C257.248 198.286 257.157 198.153 257.093 198.037H257.004V198.886H255.967ZM257.007 196.158C257.007 196.542 257.063 196.878 257.174 197.167C257.286 197.456 257.447 197.682 257.657 197.845C257.868 198.006 258.126 198.087 258.431 198.087C258.749 198.087 259.014 198.003 259.227 197.835C259.44 197.664 259.601 197.433 259.71 197.142C259.821 196.851 259.877 196.523 259.877 196.158C259.877 195.799 259.822 195.475 259.713 195.189C259.607 194.903 259.446 194.676 259.23 194.511C259.017 194.345 258.751 194.262 258.431 194.262C258.124 194.262 257.863 194.341 257.65 194.5C257.44 194.659 257.28 194.88 257.171 195.164C257.062 195.448 257.007 195.78 257.007 196.158ZM263.203 191.613V198.886H262.142V191.613H263.203ZM266.983 198.996C266.445 198.996 265.982 198.881 265.594 198.651C265.208 198.419 264.91 198.094 264.699 197.675C264.491 197.253 264.387 196.76 264.387 196.194C264.387 195.635 264.491 195.143 264.699 194.717C264.91 194.291 265.203 193.958 265.58 193.719C265.959 193.48 266.401 193.36 266.908 193.36C267.216 193.36 267.514 193.411 267.803 193.513C268.092 193.615 268.351 193.774 268.581 193.992C268.81 194.21 268.991 194.493 269.124 194.841C269.257 195.187 269.323 195.607 269.323 196.102V196.478H264.987V195.683H268.282C268.282 195.403 268.225 195.156 268.112 194.94C267.998 194.723 267.838 194.551 267.632 194.426C267.429 194.3 267.19 194.237 266.915 194.237C266.617 194.237 266.356 194.311 266.134 194.457C265.914 194.602 265.743 194.791 265.623 195.026C265.504 195.258 265.445 195.51 265.445 195.782V196.403C265.445 196.768 265.509 197.078 265.637 197.334C265.767 197.59 265.948 197.785 266.18 197.92C266.412 198.052 266.683 198.119 266.993 198.119C267.194 198.119 267.378 198.09 267.544 198.033C267.709 197.974 267.853 197.887 267.973 197.771C268.094 197.655 268.186 197.511 268.25 197.341L269.255 197.522C269.175 197.818 269.03 198.077 268.822 198.3C268.616 198.52 268.357 198.692 268.044 198.815C267.734 198.935 267.38 198.996 266.983 198.996Z" fill="#EFF6FF"/>
<defs>
<filter id="filter0_f_2031_742" x="-76.5" y="-201.114" width="678" height="637" filterUnits="userSpaceOnUse" color-interpolation-filters="sRGB">
<feFlood flood-opacity="0" result="BackgroundImageFix"/>
<feBlend mode="normal" in="SourceGraphic" in2="BackgroundImageFix" result="shape"/>
<feGaussianBlur stdDeviation="82" result="effect1_foregroundBlur_2031_742"/>
</filter>
<filter id="filter1_f_2031_742" x="46.5" y="21.8857" width="176" height="176" filterUnits="userSpaceOnUse" color-interpolation-filters="sRGB">
<feFlood flood-opacity="0" result="BackgroundImageFix"/>
<feBlend mode="normal" in="SourceGraphic" in2="BackgroundImageFix" result="shape"/>
<feGaussianBlur stdDeviation="24" result="effect1_foregroundBlur_2031_742"/>
</filter>
<filter id="filter2_d_2031_742" x="82.5" y="67.8857" width="104" height="104" filterUnits="userSpaceOnUse" color-interpolation-filters="sRGB">
<feFlood flood-opacity="0" result="BackgroundImageFix"/>
<feColorMatrix in="SourceAlpha" type="matrix" values="0 0 0 0 0 0 0 0 0 0 0 0 0 0 0 0 0 0 127 0" result="hardAlpha"/>
<feMorphology radius="3" operator="erode" in="SourceAlpha" result="effect1_dropShadow_2031_742"/>
<feOffset dy="10"/>
<feGaussianBlur stdDeviation="7.5"/>
<feComposite in2="hardAlpha" operator="out"/>
<feColorMatrix type="matrix" values="0 0 0 0 0.0117647 0 0 0 0 0.027451 0 0 0 0 0.0705882 0 0 0 0.04 0"/>
<feBlend mode="normal" in2="BackgroundImageFix" result="effect1_dropShadow_2031_742"/>
<feBlend mode="normal" in="SourceGraphic" in2="effect1_dropShadow_2031_742" result="shape"/>
</filter>
<filter id="filter3_d_2031_742" x="99" y="75.3857" width="71" height="71" filterUnits="userSpaceOnUse" color-interpolation-filters="sRGB">
<feFlood flood-opacity="0" result="BackgroundImageFix"/>
<feColorMatrix in="SourceAlpha" type="matrix" values="0 0 0 0 0 0 0 0 0 0 0 0 0 0 0 0 0 0 127 0" result="hardAlpha"/>
<feOffset dy="1"/>
<feGaussianBlur stdDeviation="1.5"/>
<feComposite in2="hardAlpha" operator="out"/>
<feColorMatrix type="matrix" values="0 0 0 0 0.0117647 0 0 0 0 0.027451 0 0 0 0 0.0705882 0 0 0 0.12 0"/>
<feBlend mode="normal" in2="BackgroundImageFix" result="effect1_dropShadow_2031_742"/>
<feBlend mode="normal" in="SourceGraphic" in2="effect1_dropShadow_2031_742" result="shape"/>
</filter>
<filter id="filter4_f_2031_742" x="162.5" y="21.8857" width="176" height="176" filterUnits="userSpaceOnUse" color-interpolation-filters="sRGB">
<feFlood flood-opacity="0" result="BackgroundImageFix"/>
<feBlend mode="normal" in="SourceGraphic" in2="BackgroundImageFix" result="shape"/>
<feGaussianBlur stdDeviation="24" result="effect1_foregroundBlur_2031_742"/>
</filter>
<filter id="filter5_d_2031_742" x="198.5" y="67.8857" width="104" height="104" filterUnits="userSpaceOnUse" color-interpolation-filters="sRGB">
<feFlood flood-opacity="0" result="BackgroundImageFix"/>
<feColorMatrix in="SourceAlpha" type="matrix" values="0 0 0 0 0 0 0 0 0 0 0 0 0 0 0 0 0 0 127 0" result="hardAlpha"/>
<feMorphology radius="3" operator="erode" in="SourceAlpha" result="effect1_dropShadow_2031_742"/>
<feOffset dy="10"/>
<feGaussianBlur stdDeviation="7.5"/>
<feComposite in2="hardAlpha" operator="out"/>
<feColorMatrix type="matrix" values="0 0 0 0 0.0117647 0 0 0 0 0.027451 0 0 0 0 0.0705882 0 0 0 0.04 0"/>
<feBlend mode="normal" in2="BackgroundImageFix" result="effect1_dropShadow_2031_742"/>
<feBlend mode="normal" in="SourceGraphic" in2="effect1_dropShadow_2031_742" result="shape"/>
</filter>
<filter id="filter6_d_2031_742" x="215" y="75.3857" width="71" height="71" filterUnits="userSpaceOnUse" color-interpolation-filters="sRGB">
<feFlood flood-opacity="0" result="BackgroundImageFix"/>
<feColorMatrix in="SourceAlpha" type="matrix" values="0 0 0 0 0 0 0 0 0 0 0 0 0 0 0 0 0 0 127 0" result="hardAlpha"/>
<feOffset dy="1"/>
<feGaussianBlur stdDeviation="1.5"/>
<feComposite in2="hardAlpha" operator="out"/>
<feColorMatrix type="matrix" values="0 0 0 0 0.0117647 0 0 0 0 0.027451 0 0 0 0 0.0705882 0 0 0 0.12 0"/>
<feBlend mode="normal" in2="BackgroundImageFix" result="effect1_dropShadow_2031_742"/>
<feBlend mode="normal" in="SourceGraphic" in2="effect1_dropShadow_2031_742" result="shape"/>
</filter>
<filter id="filter7_f_2031_742" x="278.5" y="21.8857" width="176" height="176" filterUnits="userSpaceOnUse" color-interpolation-filters="sRGB">
<feFlood flood-opacity="0" result="BackgroundImageFix"/>
<feBlend mode="normal" in="SourceGraphic" in2="BackgroundImageFix" result="shape"/>
<feGaussianBlur stdDeviation="24" result="effect1_foregroundBlur_2031_742"/>
</filter>
<filter id="filter8_d_2031_742" x="314.5" y="67.8857" width="104" height="104" filterUnits="userSpaceOnUse" color-interpolation-filters="sRGB">
<feFlood flood-opacity="0" result="BackgroundImageFix"/>
<feColorMatrix in="SourceAlpha" type="matrix" values="0 0 0 0 0 0 0 0 0 0 0 0 0 0 0 0 0 0 127 0" result="hardAlpha"/>
<feMorphology radius="3" operator="erode" in="SourceAlpha" result="effect1_dropShadow_2031_742"/>
<feOffset dy="10"/>
<feGaussianBlur stdDeviation="7.5"/>
<feComposite in2="hardAlpha" operator="out"/>
<feColorMatrix type="matrix" values="0 0 0 0 0.0117647 0 0 0 0 0.027451 0 0 0 0 0.0705882 0 0 0 0.04 0"/>
<feBlend mode="normal" in2="BackgroundImageFix" result="effect1_dropShadow_2031_742"/>
<feBlend mode="normal" in="SourceGraphic" in2="effect1_dropShadow_2031_742" result="shape"/>
</filter>
<filter id="filter9_d_2031_742" x="331" y="75.3857" width="71" height="71" filterUnits="userSpaceOnUse" color-interpolation-filters="sRGB">
<feFlood flood-opacity="0" result="BackgroundImageFix"/>
<feColorMatrix in="SourceAlpha" type="matrix" values="0 0 0 0 0 0 0 0 0 0 0 0 0 0 0 0 0 0 127 0" result="hardAlpha"/>
<feOffset dy="1"/>
<feGaussianBlur stdDeviation="1.5"/>
<feComposite in2="hardAlpha" operator="out"/>
<feColorMatrix type="matrix" values="0 0 0 0 0.0117647 0 0 0 0 0.027451 0 0 0 0 0.0705882 0 0 0 0.12 0"/>
<feBlend mode="normal" in2="BackgroundImageFix" result="effect1_dropShadow_2031_742"/>
<feBlend mode="normal" in="SourceGraphic" in2="effect1_dropShadow_2031_742" result="shape"/>
</filter>
<filter id="filter10_d_2031_742" x="28.5" y="153.886" width="444" height="198" filterUnits="userSpaceOnUse" color-interpolation-filters="sRGB">
<feFlood flood-opacity="0" result="BackgroundImageFix"/>
<feColorMatrix in="SourceAlpha" type="matrix" values="0 0 0 0 0 0 0 0 0 0 0 0 0 0 0 0 0 0 127 0" result="hardAlpha"/>
<feOffset dy="4"/>
<feGaussianBlur stdDeviation="20"/>
<feComposite in2="hardAlpha" operator="out"/>
<feColorMatrix type="matrix" values="0 0 0 0 0 0 0 0 0 0 0 0 0 0 0 0 0 0 0.12 0"/>
<feBlend mode="normal" in2="BackgroundImageFix" result="effect1_dropShadow_2031_742"/>
<feBlend mode="normal" in="SourceGraphic" in2="effect1_dropShadow_2031_742" result="shape"/>
</filter>
<linearGradient id="paint0_linear_2031_742" x1="424.861" y1="-19.9476" x2="292.643" y2="284.957" gradientUnits="userSpaceOnUse">
<stop stop-color="#1D4ED8"/>
<stop offset="1" stop-color="#1D4ED8"/>
</linearGradient>
<linearGradient id="paint1_linear_2031_742" x1="119.469" y1="87.9482" x2="136.696" y2="142.386" gradientUnits="userSpaceOnUse">
<stop stop-color="#3B82F6"/>
<stop offset="1" stop-color="#2563EB"/>
</linearGradient>
<linearGradient id="paint2_linear_2031_742" x1="235.469" y1="87.9482" x2="252.696" y2="142.386" gradientUnits="userSpaceOnUse">
<stop stop-color="#3B82F6"/>
<stop offset="1" stop-color="#2563EB"/>
</linearGradient>
<linearGradient id="paint3_linear_2031_742" x1="351.469" y1="87.9482" x2="368.696" y2="142.386" gradientUnits="userSpaceOnUse">
<stop stop-color="#3B82F6"/>
<stop offset="1" stop-color="#2563EB"/>
</linearGradient>
<clipPath id="clip0_2031_742">
<rect x="0.5" y="0.885742" width="500" height="271" rx="12" fill="white"/>
</clipPath>
</defs>
</svg>
