<svg width="630" height="381" viewBox="0 0 630 381" fill="none" xmlns="http://www.w3.org/2000/svg">
<g clip-path="url(#clip0_2031_524)">
<rect x="35.6797" y="18.3829" width="529.321" height="325.003" rx="12.7037" fill="#1D2432"/>
<path d="M63.2051 -13.3763V343.915" stroke="white" stroke-opacity="0.32" stroke-width="1.05864" stroke-linecap="square" stroke-linejoin="round"/>
<path d="M537.477 -13.3763V343.915" stroke="white" stroke-opacity="0.32" stroke-width="1.05864" stroke-linecap="square" stroke-linejoin="round"/>
<path d="M18.7422 45.9077H612.64" stroke="white" stroke-opacity="0.32" stroke-width="1.05864" stroke-linecap="square" stroke-linejoin="round"/>
<path d="M18.7422 315.861H612.64" stroke="white" stroke-opacity="0.32" stroke-width="1.05864" stroke-linecap="square" stroke-linejoin="round"/>
<g filter="url(#filter0_f_2031_524)">
<path fill-rule="evenodd" clip-rule="evenodd" d="M127.781 -21.8454L498.306 260.842L270.043 305.275L127.781 -21.8454Z" fill="url(#paint0_linear_2031_524)" fill-opacity="0.24"/>
</g>
<path d="M507.175 237.654L507.175 237.655C505.999 240.497 504.006 242.927 501.448 244.636C498.891 246.346 495.884 247.258 492.808 247.259H412.395H411.865V247.788V408.616C411.865 417.006 408.532 425.053 402.599 430.986C396.666 436.919 388.62 440.252 380.229 440.252H219.403C211.012 440.252 202.965 436.919 197.033 430.986C191.1 425.053 187.767 417.006 187.767 408.616V247.788V247.259H187.237H106.824H106.823C103.745 247.261 100.736 246.351 98.1761 244.642C95.6161 242.933 93.6207 240.503 92.4425 237.659C91.2643 234.816 90.9562 231.687 91.5574 228.668C92.1585 225.649 93.6418 222.877 95.8194 220.702L95.8197 220.701L288.812 27.7087L288.812 27.7085C290.256 26.2624 291.972 25.1152 293.86 24.3325C295.748 23.5498 297.772 23.1469 299.816 23.1469C301.86 23.1469 303.884 23.5498 305.772 24.3325C307.66 25.1152 309.375 26.2624 310.82 27.7085L310.82 27.7087L503.812 220.701C505.987 222.878 507.467 225.65 508.065 228.668C508.664 231.685 508.354 234.813 507.175 237.654Z" fill="url(#paint1_linear_2031_524)" fill-opacity="0.5" stroke="url(#paint2_linear_2031_524)" stroke-width="1.05864"/>
<circle cx="541.995" cy="73.563" r="2.11728" transform="rotate(28 541.995 73.563)" fill="#3B82F6" fill-opacity="0.96"/>
<circle cx="516.99" cy="139.507" r="1.05864" transform="rotate(28 516.99 139.507)" fill="#3B82F6" fill-opacity="0.96"/>
<circle cx="470.78" cy="175.535" r="1.58796" transform="rotate(28 470.78 175.535)" fill="#3B82F6" fill-opacity="0.96"/>
<circle cx="447.403" cy="143.06" r="1.05864" transform="rotate(28 447.403 143.06)" fill="#3B82F6" fill-opacity="0.48"/>
<circle cx="545.231" cy="195.272" r="1.58796" transform="rotate(28 545.231 195.272)" fill="#3B82F6" fill-opacity="0.96"/>
<circle cx="473.867" cy="86.9523" r="1.05864" transform="rotate(28 473.867 86.9523)" fill="#3B82F6" fill-opacity="0.48"/>
<circle cx="519.823" cy="183.627" r="1.58796" transform="rotate(28 519.823 183.627)" fill="#3B82F6" fill-opacity="0.32"/>
<rect opacity="0.05" x="152.131" y="178.981" width="286.437" height="89.2417" rx="17.2726" fill="white"/>
<rect opacity="0.2" x="123.547" y="164.587" width="344.012" height="89.2417" rx="17.2726" fill="white"/>
<g filter="url(#filter1_d_2031_524)">
<rect x="92.8457" y="104.133" width="405.906" height="126.666" rx="17.2726" fill="white"/>
<rect x="93.5654" y="104.853" width="404.466" height="125.226" rx="16.5529" stroke="#D9D9D9" stroke-opacity="0.6" stroke-width="1.43938"/>
<rect x="115.875" y="127.163" width="80.6054" height="80.6054" rx="40.3027" fill="#3B82F6" fill-opacity="0.12"/>
<path d="M156.179 148.754C152.478 148.754 148.86 149.851 145.783 151.907C142.706 153.963 140.307 156.886 138.891 160.305C137.475 163.724 137.104 167.486 137.826 171.116C138.548 174.746 140.33 178.08 142.947 180.697C145.564 183.314 148.898 185.096 152.528 185.818C156.158 186.54 159.92 186.17 163.34 184.753C166.759 183.337 169.681 180.939 171.737 177.861C173.793 174.784 174.891 171.167 174.891 167.466C174.885 162.505 172.912 157.748 169.404 154.24C165.896 150.732 161.14 148.759 156.179 148.754ZM158.338 176.102H157.618V177.541C157.618 177.923 157.466 178.289 157.197 178.559C156.927 178.829 156.561 178.981 156.179 178.981C155.797 178.981 155.431 178.829 155.161 178.559C154.891 178.289 154.739 177.923 154.739 177.541V176.102H151.861C151.479 176.102 151.113 175.95 150.843 175.68C150.573 175.41 150.421 175.044 150.421 174.663C150.421 174.281 150.573 173.915 150.843 173.645C151.113 173.375 151.479 173.223 151.861 173.223H158.338C158.91 173.223 159.46 172.996 159.865 172.591C160.269 172.186 160.497 171.637 160.497 171.064C160.497 170.492 160.269 169.942 159.865 169.537C159.46 169.133 158.91 168.905 158.338 168.905H154.02C152.684 168.905 151.402 168.374 150.457 167.43C149.513 166.485 148.982 165.203 148.982 163.867C148.982 162.531 149.513 161.25 150.457 160.305C151.402 159.36 152.684 158.829 154.02 158.829H154.739V157.39C154.739 157.008 154.891 156.642 155.161 156.372C155.431 156.102 155.797 155.951 156.179 155.951C156.561 155.951 156.927 156.102 157.197 156.372C157.466 156.642 157.618 157.008 157.618 157.39V158.829H160.497C160.879 158.829 161.245 158.981 161.515 159.251C161.785 159.521 161.936 159.887 161.936 160.269C161.936 160.651 161.785 161.017 161.515 161.287C161.245 161.557 160.879 161.708 160.497 161.708H154.02C153.447 161.708 152.898 161.936 152.493 162.341C152.088 162.745 151.861 163.295 151.861 163.867C151.861 164.44 152.088 164.989 152.493 165.394C152.898 165.799 153.447 166.026 154.02 166.026H158.338C159.674 166.026 160.955 166.557 161.9 167.502C162.845 168.447 163.376 169.728 163.376 171.064C163.376 172.4 162.845 173.682 161.9 174.626C160.955 175.571 159.674 176.102 158.338 176.102Z" fill="#3B82F6"/>
<path d="M231.141 153.163H229.62C229.53 152.726 229.373 152.341 229.148 152.01C228.927 151.679 228.657 151.401 228.338 151.176C228.023 150.947 227.674 150.775 227.289 150.661C226.905 150.546 226.504 150.489 226.087 150.489C225.326 150.489 224.637 150.681 224.02 151.066C223.407 151.45 222.918 152.016 222.554 152.765C222.194 153.513 222.014 154.431 222.014 155.519C222.014 156.606 222.194 157.524 222.554 158.273C222.918 159.021 223.407 159.587 224.02 159.972C224.637 160.356 225.326 160.548 226.087 160.548C226.504 160.548 226.905 160.491 227.289 160.377C227.674 160.262 228.023 160.092 228.338 159.867C228.657 159.638 228.927 159.358 229.148 159.027C229.373 158.692 229.53 158.307 229.62 157.874H231.141C231.027 158.516 230.818 159.09 230.516 159.598C230.213 160.105 229.837 160.536 229.387 160.892C228.937 161.243 228.432 161.511 227.872 161.695C227.316 161.879 226.721 161.971 226.087 161.971C225.016 161.971 224.063 161.71 223.229 161.186C222.395 160.663 221.738 159.919 221.26 158.953C220.781 157.988 220.542 156.843 220.542 155.519C220.542 154.194 220.781 153.049 221.26 152.084C221.738 151.119 222.395 150.374 223.229 149.851C224.063 149.328 225.016 149.066 226.087 149.066C226.721 149.066 227.316 149.158 227.872 149.342C228.432 149.526 228.937 149.796 229.387 150.152C229.837 150.503 230.213 150.933 230.516 151.44C230.818 151.943 231.027 152.517 231.141 153.163ZM235.816 162.02C235.219 162.02 234.677 161.908 234.19 161.683C233.704 161.454 233.317 161.125 233.031 160.695C232.745 160.262 232.602 159.739 232.602 159.125C232.602 158.585 232.708 158.148 232.921 157.813C233.133 157.473 233.417 157.207 233.773 157.015C234.129 156.823 234.521 156.68 234.951 156.586C235.384 156.488 235.82 156.41 236.257 156.353C236.83 156.279 237.294 156.224 237.65 156.187C238.01 156.146 238.271 156.079 238.435 155.985C238.602 155.891 238.686 155.727 238.686 155.494V155.445C238.686 154.84 238.521 154.37 238.189 154.034C237.862 153.699 237.365 153.531 236.699 153.531C236.008 153.531 235.466 153.683 235.073 153.985C234.681 154.288 234.405 154.611 234.245 154.954L232.871 154.464C233.117 153.891 233.444 153.445 233.853 153.126C234.266 152.803 234.716 152.579 235.202 152.452C235.693 152.321 236.176 152.255 236.65 152.255C236.952 152.255 237.3 152.292 237.693 152.366C238.089 152.435 238.472 152.581 238.84 152.801C239.212 153.022 239.52 153.355 239.766 153.801C240.011 154.247 240.134 154.844 240.134 155.592V161.8H238.686V160.524H238.613C238.515 160.728 238.351 160.947 238.122 161.18C237.893 161.413 237.588 161.611 237.208 161.775C236.828 161.939 236.364 162.02 235.816 162.02ZM236.036 160.72C236.609 160.72 237.091 160.608 237.484 160.383C237.881 160.158 238.179 159.867 238.38 159.512C238.584 159.156 238.686 158.782 238.686 158.389V157.064C238.625 157.138 238.49 157.205 238.281 157.267C238.077 157.324 237.84 157.375 237.57 157.42C237.304 157.461 237.044 157.498 236.791 157.53C236.542 157.559 236.339 157.584 236.184 157.604C235.808 157.653 235.456 157.733 235.129 157.843C234.806 157.95 234.544 158.111 234.344 158.328C234.147 158.54 234.049 158.831 234.049 159.199C234.049 159.702 234.235 160.082 234.607 160.34C234.984 160.593 235.46 160.72 236.036 160.72ZM249.09 154.488L247.789 154.856C247.707 154.639 247.587 154.429 247.427 154.224C247.272 154.016 247.059 153.844 246.789 153.709C246.52 153.574 246.174 153.507 245.753 153.507C245.176 153.507 244.696 153.64 244.311 153.905C243.931 154.167 243.741 154.5 243.741 154.905C243.741 155.265 243.872 155.549 244.134 155.758C244.395 155.966 244.804 156.14 245.36 156.279L246.759 156.623C247.601 156.827 248.229 157.14 248.642 157.561C249.055 157.978 249.261 158.516 249.261 159.174C249.261 159.714 249.106 160.197 248.795 160.622C248.488 161.047 248.059 161.382 247.507 161.628C246.955 161.873 246.313 161.996 245.581 161.996C244.62 161.996 243.825 161.787 243.195 161.37C242.565 160.953 242.167 160.344 241.999 159.542L243.373 159.199C243.504 159.706 243.751 160.086 244.115 160.34C244.483 160.593 244.964 160.72 245.557 160.72C246.231 160.72 246.767 160.577 247.164 160.291C247.564 160 247.765 159.653 247.765 159.248C247.765 158.921 247.65 158.647 247.421 158.426C247.192 158.201 246.841 158.033 246.366 157.923L244.796 157.555C243.933 157.351 243.299 157.034 242.895 156.604C242.494 156.171 242.293 155.629 242.293 154.979C242.293 154.447 242.443 153.977 242.741 153.568C243.044 153.159 243.455 152.838 243.974 152.605C244.497 152.372 245.09 152.255 245.753 152.255C246.685 152.255 247.417 152.46 247.949 152.869C248.484 153.278 248.865 153.818 249.09 154.488ZM252.528 156.132V161.8H251.08V149.238H252.528V153.85H252.651C252.872 153.364 253.203 152.977 253.644 152.691C254.09 152.401 254.683 152.255 255.423 152.255C256.065 152.255 256.627 152.384 257.11 152.642C257.592 152.895 257.967 153.286 258.232 153.813C258.502 154.337 258.637 155.003 258.637 155.813V161.8H257.19V155.911C257.19 155.163 256.995 154.584 256.607 154.175C256.223 153.762 255.689 153.556 255.006 153.556C254.532 153.556 254.106 153.656 253.73 153.856C253.358 154.057 253.064 154.349 252.847 154.733C252.634 155.118 252.528 155.584 252.528 156.132ZM261.122 161.8V149.238H262.569V153.875H262.692C262.798 153.711 262.946 153.503 263.134 153.249C263.326 152.992 263.6 152.763 263.956 152.562C264.316 152.358 264.802 152.255 265.416 152.255C266.209 152.255 266.908 152.454 267.513 152.85C268.118 153.247 268.591 153.809 268.93 154.537C269.27 155.265 269.439 156.124 269.439 157.113C269.439 158.111 269.27 158.976 268.93 159.708C268.591 160.436 268.12 161 267.519 161.401C266.918 161.798 266.225 161.996 265.44 161.996C264.835 161.996 264.35 161.896 263.986 161.695C263.622 161.491 263.342 161.26 263.146 161.002C262.95 160.74 262.798 160.524 262.692 160.352H262.52V161.8H261.122ZM262.545 157.089C262.545 157.8 262.649 158.428 262.858 158.972C263.066 159.512 263.371 159.935 263.772 160.242C264.172 160.544 264.663 160.695 265.244 160.695C265.849 160.695 266.354 160.536 266.759 160.217C267.168 159.894 267.474 159.461 267.679 158.917C267.887 158.369 267.992 157.759 267.992 157.089C267.992 156.426 267.889 155.829 267.685 155.298C267.485 154.762 267.18 154.339 266.771 154.028C266.366 153.713 265.857 153.556 265.244 153.556C264.655 153.556 264.16 153.705 263.759 154.004C263.359 154.298 263.056 154.711 262.852 155.243C262.647 155.77 262.545 156.386 262.545 157.089ZM274.066 162.02C273.469 162.02 272.927 161.908 272.441 161.683C271.954 161.454 271.568 161.125 271.281 160.695C270.995 160.262 270.852 159.739 270.852 159.125C270.852 158.585 270.958 158.148 271.171 157.813C271.384 157.473 271.668 157.207 272.024 157.015C272.379 156.823 272.772 156.68 273.201 156.586C273.635 156.488 274.07 156.41 274.508 156.353C275.08 156.279 275.544 156.224 275.9 156.187C276.26 156.146 276.522 156.079 276.685 155.985C276.853 155.891 276.937 155.727 276.937 155.494V155.445C276.937 154.84 276.771 154.37 276.44 154.034C276.113 153.699 275.616 153.531 274.949 153.531C274.258 153.531 273.717 153.683 273.324 153.985C272.931 154.288 272.655 154.611 272.496 154.954L271.122 154.464C271.367 153.891 271.694 153.445 272.103 153.126C272.516 152.803 272.966 152.579 273.453 152.452C273.943 152.321 274.426 152.255 274.9 152.255C275.203 152.255 275.55 152.292 275.943 152.366C276.34 152.435 276.722 152.581 277.09 152.801C277.462 153.022 277.771 153.355 278.016 153.801C278.262 154.247 278.384 154.844 278.384 155.592V161.8H276.937V160.524H276.863C276.765 160.728 276.601 160.947 276.372 161.18C276.143 161.413 275.839 161.611 275.458 161.775C275.078 161.939 274.614 162.02 274.066 162.02ZM274.287 160.72C274.859 160.72 275.342 160.608 275.734 160.383C276.131 160.158 276.43 159.867 276.63 159.512C276.834 159.156 276.937 158.782 276.937 158.389V157.064C276.875 157.138 276.74 157.205 276.532 157.267C276.327 157.324 276.09 157.375 275.82 157.42C275.555 157.461 275.295 157.498 275.041 157.53C274.792 157.559 274.59 157.584 274.434 157.604C274.058 157.653 273.706 157.733 273.379 157.843C273.056 157.95 272.794 158.111 272.594 158.328C272.398 158.54 272.3 158.831 272.3 159.199C272.3 159.702 272.486 160.082 272.858 160.34C273.234 160.593 273.71 160.72 274.287 160.72ZM284.494 161.996C283.611 161.996 282.85 161.787 282.212 161.37C281.574 160.953 281.084 160.379 280.74 159.647C280.397 158.915 280.225 158.078 280.225 157.138C280.225 156.181 280.401 155.337 280.752 154.605C281.108 153.869 281.603 153.294 282.237 152.881C282.875 152.464 283.619 152.255 284.469 152.255C285.132 152.255 285.729 152.378 286.26 152.623C286.792 152.869 287.228 153.212 287.567 153.654C287.906 154.096 288.117 154.611 288.199 155.2H286.751C286.641 154.77 286.395 154.39 286.015 154.059C285.639 153.723 285.132 153.556 284.494 153.556C283.93 153.556 283.435 153.703 283.01 153.997C282.588 154.288 282.259 154.699 282.022 155.23C281.789 155.758 281.672 156.377 281.672 157.089C281.672 157.817 281.787 158.451 282.016 158.99C282.249 159.53 282.576 159.949 282.997 160.248C283.423 160.546 283.921 160.695 284.494 160.695C284.87 160.695 285.212 160.63 285.518 160.499C285.825 160.368 286.085 160.18 286.297 159.935C286.51 159.69 286.661 159.395 286.751 159.052H288.199C288.117 159.608 287.915 160.109 287.592 160.554C287.273 160.996 286.849 161.348 286.322 161.609C285.798 161.867 285.189 161.996 284.494 161.996ZM291.304 158.365L291.28 156.574H291.574L295.696 152.378H297.487L293.096 156.819H292.973L291.304 158.365ZM289.955 161.8V149.238H291.403V161.8H289.955ZM295.942 161.8L292.261 157.138L293.292 156.132L297.782 161.8H295.942Z" fill="#374151"/>
<path d="M379.547 168.155V144.601H381.056V168.155H379.547ZM384.267 151.907C384.169 151.036 383.764 150.361 383.053 149.883C382.341 149.398 381.446 149.156 380.366 149.156C379.593 149.156 378.925 149.278 378.36 149.524C377.796 149.763 377.357 150.094 377.045 150.517C376.738 150.934 376.585 151.41 376.585 151.943C376.585 152.391 376.689 152.778 376.897 153.103C377.112 153.428 377.391 153.701 377.735 153.922C378.084 154.136 378.458 154.317 378.857 154.464C379.256 154.605 379.639 154.722 380.007 154.814L381.847 155.292C382.448 155.44 383.065 155.639 383.697 155.891C384.328 156.142 384.914 156.473 385.454 156.884C385.994 157.295 386.429 157.804 386.76 158.411C387.098 159.019 387.267 159.746 387.267 160.592C387.267 161.659 386.99 162.607 386.438 163.435C385.893 164.263 385.098 164.916 384.056 165.395C383.019 165.873 381.765 166.112 380.292 166.112C378.882 166.112 377.661 165.888 376.631 165.441C375.6 164.993 374.794 164.358 374.211 163.536C373.628 162.708 373.306 161.727 373.245 160.592H376.097C376.152 161.273 376.373 161.84 376.759 162.294C377.152 162.742 377.652 163.076 378.259 163.297C378.873 163.512 379.544 163.619 380.274 163.619C381.078 163.619 381.792 163.493 382.418 163.242C383.05 162.984 383.546 162.628 383.908 162.175C384.27 161.714 384.451 161.178 384.451 160.564C384.451 160.006 384.292 159.549 383.973 159.194C383.66 158.838 383.234 158.543 382.694 158.31C382.16 158.077 381.556 157.872 380.881 157.694L378.655 157.087C377.146 156.676 375.95 156.071 375.067 155.274C374.189 154.477 373.751 153.422 373.751 152.109C373.751 151.023 374.045 150.076 374.634 149.266C375.223 148.456 376.02 147.828 377.026 147.38C378.032 146.926 379.167 146.699 380.43 146.699C381.706 146.699 382.832 146.923 383.807 147.371C384.788 147.819 385.561 148.435 386.126 149.22C386.69 149.999 386.984 150.895 387.009 151.907H384.267ZM403.692 146.957V165.8H400.84V149.809H400.73L396.221 152.753V150.03L400.923 146.957H403.692ZM414.989 166.057C413.726 166.057 412.597 165.839 411.604 165.404C410.616 164.968 409.834 164.364 409.257 163.591C408.687 162.812 408.38 161.911 408.337 160.886H411.226C411.263 161.445 411.45 161.929 411.788 162.34C412.131 162.745 412.579 163.058 413.131 163.279C413.683 163.499 414.296 163.61 414.971 163.61C415.713 163.61 416.37 163.481 416.94 163.223C417.517 162.966 417.967 162.607 418.292 162.147C418.618 161.681 418.78 161.144 418.78 160.537C418.78 159.905 418.618 159.35 418.292 158.872C417.973 158.387 417.504 158.007 416.885 157.731C416.271 157.455 415.529 157.317 414.658 157.317H413.067V154.998H414.658C415.357 154.998 415.971 154.872 416.498 154.621C417.032 154.369 417.449 154.02 417.75 153.572C418.05 153.118 418.2 152.587 418.2 151.98C418.2 151.398 418.069 150.892 417.805 150.462C417.547 150.027 417.179 149.686 416.701 149.441C416.228 149.196 415.67 149.073 415.026 149.073C414.413 149.073 413.839 149.186 413.306 149.413C412.778 149.634 412.349 149.953 412.018 150.37C411.686 150.781 411.509 151.275 411.484 151.851H408.733C408.764 150.833 409.064 149.938 409.635 149.165C410.211 148.392 410.972 147.788 411.916 147.352C412.861 146.917 413.91 146.699 415.063 146.699C416.271 146.699 417.314 146.935 418.191 147.408C419.074 147.874 419.755 148.496 420.234 149.275C420.718 150.054 420.958 150.907 420.951 151.833C420.958 152.888 420.663 153.784 420.068 154.52C419.479 155.256 418.694 155.749 417.713 156.001V156.148C418.964 156.338 419.933 156.835 420.62 157.639C421.313 158.442 421.657 159.439 421.651 160.629C421.657 161.665 421.369 162.595 420.786 163.417C420.209 164.239 419.421 164.886 418.421 165.358C417.421 165.824 416.278 166.057 414.989 166.057ZM424.373 162.119V159.819L432.516 146.957H434.328V150.343H433.178L427.354 159.562V159.709H438.514V162.119H424.373ZM433.307 165.8V161.42L433.325 160.371V146.957H436.021V165.8H433.307ZM442.502 165.974C441.999 165.974 441.566 165.796 441.204 165.441C440.843 165.079 440.662 164.643 440.662 164.134C440.662 163.631 440.843 163.202 441.204 162.846C441.566 162.484 441.999 162.303 442.502 162.303C443.005 162.303 443.437 162.484 443.799 162.846C444.161 163.202 444.342 163.631 444.342 164.134C444.342 164.472 444.256 164.781 444.084 165.064C443.919 165.34 443.698 165.56 443.422 165.726C443.146 165.892 442.839 165.974 442.502 165.974ZM453.546 166.057C452.393 166.057 451.356 165.836 450.436 165.395C449.522 164.947 448.792 164.334 448.247 163.555C447.701 162.776 447.409 161.886 447.372 160.886H450.133C450.2 161.696 450.559 162.362 451.209 162.883C451.859 163.404 452.638 163.665 453.546 163.665C454.27 163.665 454.911 163.499 455.469 163.168C456.033 162.831 456.475 162.368 456.794 161.779C457.119 161.19 457.281 160.518 457.281 159.764C457.281 158.997 457.116 158.313 456.785 157.712C456.453 157.111 455.996 156.639 455.414 156.295C454.837 155.952 454.175 155.777 453.426 155.771C452.856 155.771 452.283 155.869 451.706 156.065C451.129 156.262 450.663 156.519 450.307 156.838L447.704 156.452L448.762 146.957H459.122V149.395H451.126L450.528 154.667H450.639C451.007 154.311 451.494 154.014 452.102 153.774C452.715 153.535 453.371 153.416 454.07 153.416C455.217 153.416 456.239 153.689 457.134 154.234C458.036 154.78 458.744 155.526 459.26 156.47C459.781 157.409 460.039 158.488 460.032 159.709C460.039 160.929 459.763 162.018 459.204 162.975C458.652 163.932 457.886 164.686 456.904 165.238C455.929 165.784 454.81 166.057 453.546 166.057ZM469.612 166.057C468.771 166.045 467.943 165.892 467.127 165.597C466.318 165.303 465.582 164.812 464.919 164.125C464.257 163.438 463.726 162.515 463.328 161.356C462.935 160.196 462.739 158.749 462.739 157.013C462.739 155.369 462.901 153.909 463.226 152.634C463.558 151.358 464.033 150.281 464.652 149.404C465.272 148.521 466.02 147.849 466.897 147.389C467.775 146.929 468.759 146.699 469.851 146.699C470.973 146.699 471.97 146.92 472.841 147.362C473.712 147.803 474.417 148.413 474.957 149.192C475.503 149.971 475.85 150.858 475.997 151.851H473.191C473 151.066 472.623 150.425 472.059 149.929C471.495 149.432 470.759 149.183 469.851 149.183C468.471 149.183 467.394 149.784 466.621 150.987C465.855 152.189 465.468 153.86 465.462 156.001H465.6C465.925 155.467 466.324 155.013 466.796 154.639C467.275 154.259 467.808 153.968 468.397 153.765C468.992 153.557 469.618 153.452 470.274 153.452C471.366 153.452 472.353 153.719 473.237 154.253C474.126 154.78 474.834 155.51 475.362 156.443C475.889 157.375 476.153 158.442 476.153 159.644C476.153 160.847 475.88 161.935 475.334 162.911C474.795 163.886 474.034 164.659 473.053 165.229C472.071 165.793 470.924 166.069 469.612 166.057ZM469.602 163.665C470.326 163.665 470.973 163.487 471.544 163.131C472.114 162.776 472.565 162.297 472.896 161.696C473.227 161.095 473.393 160.423 473.393 159.681C473.393 158.957 473.23 158.298 472.905 157.703C472.586 157.108 472.145 156.636 471.58 156.286C471.022 155.937 470.384 155.762 469.667 155.762C469.121 155.762 468.615 155.866 468.149 156.075C467.689 156.283 467.284 156.571 466.934 156.939C466.585 157.307 466.309 157.731 466.106 158.209C465.91 158.681 465.812 159.181 465.812 159.709C465.812 160.414 465.974 161.067 466.299 161.668C466.631 162.27 467.081 162.754 467.652 163.122C468.228 163.484 468.879 163.665 469.602 163.665Z" fill="#111827"/>
<g clip-path="url(#clip1_2031_524)">
<rect x="219.512" y="183.996" width="259.089" height="17.2726" rx="8.63629" fill="#F6F8F7"/>
<rect x="219.512" y="185.436" width="154.014" height="15.8332" rx="7.9166" fill="#3B82F6"/>
</g>
</g>
</g>
<circle cx="130.893" cy="28.0412" r="2.11728" transform="rotate(28 130.893 28.0412)" fill="#3B82F6" fill-opacity="0.96"/>
<circle cx="105.889" cy="93.9852" r="1.05864" transform="rotate(28 105.889 93.9852)" fill="#3B82F6" fill-opacity="0.96"/>
<circle cx="59.6781" cy="130.014" r="1.58796" transform="rotate(28 59.6781 130.014)" fill="#3B82F6" fill-opacity="0.96"/>
<circle cx="36.301" cy="97.5385" r="1.05864" transform="rotate(28 36.301 97.5385)" fill="#3B82F6" fill-opacity="0.48"/>
<circle cx="134.129" cy="149.75" r="1.58796" transform="rotate(28 134.129 149.75)" fill="#3B82F6" fill-opacity="0.96"/>
<circle cx="189.024" cy="110.586" r="0.529321" transform="rotate(28 189.024 110.586)" fill="#3B82F6" fill-opacity="0.88"/>
<circle cx="62.7658" cy="41.4305" r="1.05864" transform="rotate(28 62.7658 41.4305)" fill="#3B82F6" fill-opacity="0.48"/>
<circle cx="108.721" cy="138.105" r="1.58796" transform="rotate(28 108.721 138.105)" fill="#3B82F6" fill-opacity="0.32"/>
<defs>
<filter id="filter0_f_2031_524" x="-45.836" y="-195.463" width="717.76" height="674.355" filterUnits="userSpaceOnUse" color-interpolation-filters="sRGB">
<feFlood flood-opacity="0" result="BackgroundImageFix"/>
<feBlend mode="normal" in="SourceGraphic" in2="BackgroundImageFix" result="shape"/>
<feGaussianBlur stdDeviation="86.8086" result="effect1_foregroundBlur_2031_524"/>
</filter>
<filter id="filter1_d_2031_524" x="35.2704" y="52.3152" width="521.057" height="241.816" filterUnits="userSpaceOnUse" color-interpolation-filters="sRGB">
<feFlood flood-opacity="0" result="BackgroundImageFix"/>
<feColorMatrix in="SourceAlpha" type="matrix" values="0 0 0 0 0 0 0 0 0 0 0 0 0 0 0 0 0 0 127 0" result="hardAlpha"/>
<feOffset dy="5.75753"/>
<feGaussianBlur stdDeviation="28.7876"/>
<feComposite in2="hardAlpha" operator="out"/>
<feColorMatrix type="matrix" values="0 0 0 0 0 0 0 0 0 0 0 0 0 0 0 0 0 0 0.12 0"/>
<feBlend mode="normal" in2="BackgroundImageFix" result="effect1_dropShadow_2031_524"/>
<feBlend mode="normal" in="SourceGraphic" in2="effect1_dropShadow_2031_524" result="shape"/>
</filter>
<linearGradient id="paint0_linear_2031_524" x1="484.926" y1="-3.67204" x2="344.954" y2="319.113" gradientUnits="userSpaceOnUse">
<stop stop-color="#1D4ED8"/>
<stop offset="1" stop-color="#1D4ED8"/>
</linearGradient>
<linearGradient id="paint1_linear_2031_524" x1="209.33" y1="-840.609" x2="286.972" y2="428.554" gradientUnits="userSpaceOnUse">
<stop stop-color="#0076FF"/>
<stop offset="0.707659" stop-color="#0076FF" stop-opacity="0.45"/>
<stop offset="1" stop-color="#0076FF" stop-opacity="0"/>
</linearGradient>
<linearGradient id="paint2_linear_2031_524" x1="299.81" y1="22.6176" x2="299.81" y2="440.781" gradientUnits="userSpaceOnUse">
<stop stop-color="#0076FF"/>
<stop offset="1" stop-color="white" stop-opacity="0"/>
</linearGradient>
<clipPath id="clip0_2031_524">
<rect x="35.6797" y="18.3829" width="529.321" height="325.003" rx="12.7037" fill="white"/>
</clipPath>
<clipPath id="clip1_2031_524">
<rect x="219.512" y="183.996" width="259.089" height="17.2726" rx="8.63629" fill="white"/>
</clipPath>
</defs>
</svg>
